<svg id="e7dwn7az36vi1" xmlns="http://www.w3.org/2000/svg" xmlns:xlink="http://www.w3.org/1999/xlink" viewBox="0 0 1000 600" shape-rendering="geometricPrecision" text-rendering="geometricPrecision"><style><![CDATA[#e7dwn7az36vi8_tr {animation: e7dwn7az36vi8_tr__tr 10000ms linear infinite normal forwards}@keyframes e7dwn7az36vi8_tr__tr { 0% {transform: translate(500.449982px,263.550003px) rotate(0deg)} 100% {transform: translate(500.449982px,263.550003px) rotate(720deg)} }#e7dwn7az36vi11_tr {animation: e7dwn7az36vi11_tr__tr 10000ms linear infinite normal forwards}@keyframes e7dwn7az36vi11_tr__tr { 0% {transform: translate(175.700005px,299.450020px) rotate(0deg)} 100% {transform: translate(175.700005px,299.450020px) rotate(1080deg)} }#e7dwn7az36vi12_tr {animation: e7dwn7az36vi12_tr__tr 10000ms linear infinite normal forwards}@keyframes e7dwn7az36vi12_tr__tr { 0% {transform: translate(824.899994px,299.550003px) rotate(0deg)} 100% {transform: translate(824.899994px,299.550003px) rotate(1080deg)} }#e7dwn7az36vi15_tr {animation: e7dwn7az36vi15_tr__tr 10000ms linear infinite normal forwards}@keyframes e7dwn7az36vi15_tr__tr { 0% {transform: translate(314.349998px,335.050018px) rotate(0deg)} 100% {transform: translate(314.349998px,335.050018px) rotate(-1080deg)} }#e7dwn7az36vi16_tr {animation: e7dwn7az36vi16_tr__tr 10000ms linear infinite normal forwards}@keyframes e7dwn7az36vi16_tr__tr { 0% {transform: translate(686.449982px,334.899979px) rotate(0deg)} 100% {transform: translate(686.449982px,334.899979px) rotate(-1080deg)} }#e7dwn7az36vi42_tr {animation: e7dwn7az36vi42_tr__tr 10000ms linear infinite normal forwards}@keyframes e7dwn7az36vi42_tr__tr { 0% {transform: translate(353.749985px,534.700027px) rotate(0deg)} 100% {transform: translate(353.749985px,534.700027px) rotate(1800deg)} }#e7dwn7az36vi43_tr {animation: e7dwn7az36vi43_tr__tr 10000ms linear infinite normal forwards}@keyframes e7dwn7az36vi43_tr__tr { 0% {transform: translate(648.837158px,534.849930px) rotate(0deg)} 100% {transform: translate(648.837158px,534.849930px) rotate(-1800deg)} }]]></style><g id="e7dwn7az36vi2"><rect id="e7dwn7az36vi3" width="1000" height="600" rx="0" ry="0" fill="rgb(115,29,170)" stroke="none" stroke-width="1"/></g><g id="e7dwn7az36vi4"><g id="e7dwn7az36vi5"><g id="e7dwn7az36vi6" clip-path="url(#e7dwn7az36vi44)"><g id="e7dwn7az36vi7"><g id="e7dwn7az36vi8_tr" transform="translate(500.449982,263.550003) rotate(0)"><g id="e7dwn7az36vi8" transform="translate(-500.449982,-263.550003)"><path id="e7dwn7az36vi9" d="M627.400000,281L628.600000,267L605.800000,260.400000C605.714033,255.939557,605.279375,251.492667,604.500000,247.100000L625.700000,236.400000L622,222.800000L598.300000,224.400000C597.800000,223,597.200000,221.700000,596.600000,220.300000C595.400000,217.500000,594,214.900000,592.600000,212.300000L608.900000,195L600.700000,183.500000L579,193.200000C576.026908,189.843026,572.818814,186.701767,569.400000,183.800000L578.700000,161.900000L567.100000,153.900000L550,170.400000C546.058485,168.271929,541.983290,166.401348,537.800000,164.800000L539,141.100000L525.300000,137.600000L515,159.100000C510.560980,158.465005,506.084101,158.130910,501.600000,158.100000L494.600000,135.400000L480.600000,136.800000L478.200000,160.400000C474.818941,161.112881,471.480395,162.014288,468.200000,163.100000L454.400000,143.800000L441.500000,149.600000L446.700000,172.800000C442.848105,175.067483,439.140950,177.572317,435.600000,180.300000L416,166.900000L405.900000,176.700000L418.800000,196.700000C415.966419,200.160373,413.360919,203.801392,411,207.600000L388,201.800000L381.900000,214.500000L400.900000,228.800000C399.397283,233.009721,398.194280,237.320483,397.300000,241.700000L373.700000,244.100000L372.300000,258.100000L395,265C395.072343,269.485960,395.439804,273.962297,396.100000,278.400000L374.700000,288.800000L378.200000,302.400000L401.900000,301.100000C402.600000,302.900000,403.400000,304.800000,404.200000,306.600000C405.200000,308.900000,406.300000,311.100000,407.500000,313.300000L391,330.400000L399,342L420.800000,332.600000L420.800000,332.600000C427.302431,335.020815,434.163429,336.338937,441.100000,336.500000C451.600000,336.500000,452.300000,333.500000,452.300000,331C451.057906,331.304930,449.774555,331.406247,448.500000,331.300000C447.225445,331.193753,462.600000,315.300000,463.900000,302.400000C465.500000,314.700000,458.600000,323.900000,455.700000,327.200000C461.200000,327.200000,468.500000,324.700000,475.500000,322C482.500000,319.300000,488.800000,315.600000,496.400000,315.600000C507,315.600000,512.400000,321.900000,520.600000,321.900000C521.822797,321.891390,523.024729,321.582322,524.100000,321C521.800000,317.600000,519.900000,310.400000,519,304.200000C518.100000,298,519.700000,290.500000,519.700000,290.500000C518.548427,291.058827,517.279573,291.333174,516,291.300000C510.684725,291.050844,505.639876,288.883691,501.800000,285.200000C505.600000,278.300000,507.900000,267.700000,507.900000,267.700000C511.390644,268.629812,514.987640,269.100447,518.600000,269.100000C531.100000,269.100000,539.200000,265.900000,539.200000,265.900000C539.200000,265.900000,543,277.400000,543.900000,283.400000C544.800000,289.400000,547.400000,301.300000,548.100000,302.500000C545.577445,303.468012,542.901806,303.976044,540.200000,304C537.498194,304.023956,540.200000,323.300000,539.600000,326.700000C539,330.100000,539.300000,333,535.800000,333C532.300000,333,528.600000,332.400000,526.200000,332.400000C522.988896,332.559727,519.804101,333.062589,516.700000,333.900000C515.600000,334.500000,514.300000,341,514.300000,341L522.400000,341C532.800000,341,542.400000,348.600000,542.400000,348.600000C542.400000,348.600000,523.800000,355.600000,522.100000,358.800000C520.300000,354.800000,503.300000,347.700000,498.900000,348.200000C499.500000,341.900000,496.400000,325.700000,484.300000,325.700000C476.500000,325.700000,471.500000,333.200000,471.500000,333.200000C471.500000,333.200000,484.100000,338.100000,491.500000,346.300000C498.900000,354.500000,502.800000,360.500000,503.500000,364.100000C491.900000,353.200000,481.800000,350.700000,460.700000,350.100000C440.700000,349.600000,438.500000,352.200000,432.800000,352.200000C430.100000,352.200000,427.600000,352.300000,425.600000,352.300000L420.400000,364L431.900000,372.100000L449.200000,355.800000C453.115089,357.941499,457.155756,359.844954,461.300000,361.500000L459.700000,385.200000L473.300000,388.900000L483.900000,367.700000C488.301488,368.397147,492.744810,368.798048,497.200000,368.900000L503.900000,391.700000L517.900000,390.500000L520.600000,366.900000C524.961338,366.013678,529.268380,364.878489,533.500000,363.500000L547.600000,382.600000L560.400000,376.600000L554.800000,353.500000C558.645231,351.198370,562.321242,348.625163,565.800000,345.800000L585.600000,358.900000L595.500000,348.900000L582.800000,329C585.569351,325.479468,588.140017,321.807089,590.500000,318L613.600000,323.500000L619.500000,310.700000L600.300000,296.700000C601.678489,292.468380,602.813678,288.161338,603.700000,283.800000ZM514.600000,258.300000C511.559189,258.155041,508.558155,257.548091,505.700000,256.500000C502.841845,255.451909,498.700000,261.400000,493.300000,264.700000C482.600000,263.900000,473,269.800000,473,269.800000C473,269.800000,475.200000,265.700000,482.600000,263.800000C490.500000,261.900000,492.100000,260.600000,496.600000,257.100000C499.491228,254.740736,502.168308,252.130583,504.600000,249.300000C507.808196,251.287935,511.527041,252.295846,515.300000,252.200000C531.400000,252.200000,538.900000,246.200000,538.900000,246.200000L541.700000,250.800000C541.700000,250.900000,532.400000,260.100000,514.600000,258.300000M541,231.400000C541,231.400000,538.300000,230.300000,534.300000,239.400000L536.500000,231.600000C536.500000,231.600000,526.500000,225.700000,506.100000,225.700000C475,225.700000,462.900000,239.900000,457.900000,251.300000C454.100000,259.800000,454.900000,274.300000,455.700000,288C456.500000,301.700000,448.300000,323.200000,434.600000,327.700000C436.500000,324.200000,437.800000,312.300000,435.200000,301.800000C436.500000,301.100000,437.700000,300.400000,438.900000,299.600000C441.027394,298.288638,442.892421,296.593159,444.400000,294.600000L444.200000,294.500000C442.494552,296.208747,440.496188,297.597440,438.300000,298.600000C437.100000,299.200000,435.900000,299.700000,434.700000,300.200000C433.853166,297.086084,432.538162,294.118896,430.800000,291.400000C428.903788,288.723936,427.199522,285.916911,425.700000,283C427.598998,282.505672,429.468628,281.904720,431.300000,281.200000C433.649739,280.386027,435.822102,279.130130,437.700000,277.500000L437.500000,277.400000C435.493509,278.736097,433.255136,279.685710,430.900000,280.200000C428.897336,280.720061,426.858177,281.087779,424.800000,281.300000C422.700000,276.600000,421,270.600000,420.200000,261.500000C420.500000,261.500000,420.900000,261.600000,421.200000,261.600000C423.696009,261.799787,426.203991,261.799787,428.700000,261.600000C431.211182,261.521417,433.686160,260.978956,436,260L435.900000,259.800000C433.564934,260.481751,431.122658,260.719195,428.700000,260.500000C426.283808,260.348004,423.879262,260.047436,421.500000,259.600000L420,259.300000C419.800000,256,419.600000,252.200000,419.600000,248C419.655578,243.397634,420.328243,238.823516,421.600000,234.400000C423.100000,235.400000,424.500000,236.400000,426,237.300000C428.113103,238.623634,430.318811,239.793328,432.600000,240.800000C434.851479,241.917158,437.294898,242.595885,439.800000,242.800000L439.800000,242.600000C437.419447,242.067742,435.151391,241.119898,433.100000,239.800000C431.038113,238.538820,429.066666,237.135418,427.200000,235.600000C425.600000,234.300000,424,232.900000,422.500000,231.500000C424.920274,224.339346,428.427984,217.593748,432.900000,211.500000C434.100000,213.100000,435.300000,214.700000,436.600000,216.200000C438.195844,218.095594,439.898615,219.898528,441.700000,221.600000C443.510200,223.345583,445.607523,224.766350,447.900000,225.800000L448,225.600000C445.933386,224.368910,444.104411,222.777025,442.600000,220.900000C440.999934,219.060435,439.561285,217.086473,438.300000,215C437.100000,213.100000,435.900000,211.100000,434.800000,209C440.014110,202.384596,446.220948,196.616285,453.200000,191.900000C453.500000,192.900000,453.900000,193.900000,454.200000,194.800000C455.100000,197.100000,456,199.400000,457.100000,201.700000C458.119577,203.961795,459.323645,206.135805,460.700000,208.200000C461.972272,210.354130,463.633819,212.253040,465.600000,213.800000L465.700000,213.600000C463.967228,211.876418,462.576109,209.840635,461.600000,207.600000C460.554601,205.428048,459.652668,203.189918,458.900000,200.900000C458.100000,198.600000,457.500000,196.300000,456.900000,193.900000C456.600000,192.600000,456.300000,191.300000,456,189.900000C462.912005,185.696923,470.435058,182.593242,478.300000,180.700000C478.400000,181.400000,478.500000,182.200000,478.600000,182.900000C478.887451,185.390083,479.321539,187.861041,479.900000,190.300000C480.426855,192.736661,481.094644,195.140701,481.900000,197.500000C482.800000,199.800000,483.700000,202.200000,485.400000,204L485.500000,203.900000C484.241944,201.838980,483.361496,199.570133,482.900000,197.200000C482.387111,194.824629,482.019761,192.420154,481.800000,190C481.600000,187.600000,481.500000,185.200000,481.500000,182.700000L481.500000,180C485.889108,179.147652,490.333969,178.612932,494.800000,178.400000C499.738933,178.208213,504.685272,178.375319,509.600000,178.900000L509,181.300000C508.400000,183.700000,508,186.200000,507.600000,188.600000C507.205601,191.047037,507.004978,193.521388,507,196C506.881989,198.506892,507.220835,201.014348,508,203.400000L508.200000,203.300000C507.716236,200.927422,507.682314,198.485098,508.100000,196.100000C508.397531,193.695041,508.899344,191.319791,509.600000,189C510.200000,186.700000,511,184.400000,511.800000,182.100000C512.100000,181.200000,512.500000,180.200000,512.900000,179.300000C521.114653,180.475963,529.145992,182.693822,536.800000,185.900000L535.300000,188.600000C534.100000,190.800000,533.100000,193.100000,532.100000,195.300000C531.118643,197.577790,530.283614,199.915873,529.600000,202.300000C528.853134,204.691550,528.548156,207.199147,528.700000,209.700000L528.900000,209.700000C529.061827,207.286563,529.636848,204.918830,530.600000,202.700000C531.518942,200.446071,532.622703,198.271995,533.900000,196.200000C535.100000,194.100000,536.400000,192.100000,537.800000,190.100000C538.500000,189.100000,539.100000,188.200000,539.800000,187.300000C558.800000,196.200000,568.500000,208.500000,568.500000,208.500000Z" fill="rgb(253,198,49)" stroke="none" stroke-width="1"/><path id="e7dwn7az36vi10" d="M530.300000,275.800000C527.411073,275.825964,524.581021,276.619759,522.100000,278.100000C524.468434,279.050842,526.443178,280.778743,527.700000,283C528.914530,282.537331,530.243613,282.467379,531.500000,282.800000C532.852606,283.059290,534.122194,283.642615,535.200000,284.500000C535.153944,282.503456,535.423947,280.512190,536,278.600000C534.649662,276.817835,532.535868,275.779480,530.300000,275.800000" fill="rgb(253,198,49)" stroke="none" stroke-width="1"/></g></g><g id="e7dwn7az36vi11_tr" transform="translate(175.700005,299.450020) rotate(0)"><path id="e7dwn7az36vi11" d="M248.200000,305.500000L248.200000,293.500000L225.500000,291.300000C224.987432,287.981995,224.115643,284.729552,222.900000,281.600000L241.400000,268.400000L235.400000,258L214.700000,267.500000C212.580827,264.864503,210.164877,262.482108,207.500000,260.400000L216.900000,239.700000L206.500000,233.700000L193.400000,252.300000C190.519339,251.209693,187.538278,250.405811,184.500000,249.900000L182.700000,227.200000L170.700000,227L168.200000,249.600000C164.855320,250.090452,161.570896,250.928315,158.400000,252.100000L145.400000,233.400000L135,239.300000L144.200000,260.100000C141.557995,262.208008,139.144751,264.587734,137,267.200000L116.400000,257.500000L110.300000,267.800000L128.700000,281.200000C127.464661,284.330485,126.559749,287.581464,126,290.900000L103.300000,292.800000L103.200000,304.800000L125.800000,307.200000C126.338007,310.534977,127.174707,313.814841,128.300000,317L110,330L115.900000,340.400000L136.700000,331.100000C138.834665,333.718218,141.211892,336.128927,143.800000,338.300000L134.200000,358.900000L144.500000,364.900000L157.800000,346.400000C160.949821,347.576815,164.195147,348.480153,167.500000,349.100000L169.500000,371.800000L181.500000,371.900000L183.800000,349.200000C187.147888,348.675036,190.432183,347.803693,193.600000,346.600000L206.700000,365.200000L217.100000,359.300000L207.700000,338.600000C210.318258,336.465379,212.728971,334.088148,214.900000,331.500000L235.600000,341L241.600000,330.600000L223.100000,317.400000C224.291034,314.262449,225.162121,311.012623,225.700000,307.700000ZM198.700000,284L176.700000,330.500000L161.300000,330.500000L183.800000,284L152.300000,284L152.300000,272.200000L198.700000,272.200000L198.700000,284Z" transform="translate(-175.700005,-299.450020)" fill="rgb(253,198,49)" stroke="none" stroke-width="1"/></g><g id="e7dwn7az36vi12_tr" transform="translate(824.899994,299.550003) rotate(0)"><g id="e7dwn7az36vi12" transform="translate(-824.899994,-299.550003)"><path id="e7dwn7az36vi13" d="M825.700000,299.900000C820.200000,299.900000,816.700000,303.400000,816.700000,309.700000C816.700000,316,820.200000,319.500000,825.700000,319.500000C831.200000,319.500000,834.800000,316,834.800000,309.700000C834.800000,303.400000,831.100000,299.900000,825.700000,299.900000" fill="rgb(253,198,49)" stroke="none" stroke-width="1"/><path id="e7dwn7az36vi14" d="M875.100000,294.900000L896.500000,287.100000L893.500000,275.500000L871,279.100000C869.645527,275.999952,867.969696,273.050489,866,270.300000L880.600000,252.800000L872.200000,244.300000L854.600000,258.700000C851.862610,256.736684,848.950326,255.029483,845.900000,253.600000L849.800000,231.200000L838.300000,228.100000L830.300000,249.400000C826.942429,249.050018,823.557571,249.050018,820.200000,249.400000L812.300000,228L800.700000,231.100000L804.400000,253.500000C801.596502,254.742588,798.917737,256.249393,796.400000,258L779.100000,243.200000L770.500000,251.500000L784.700000,269.300000C782.684914,271.986559,780.942951,274.867499,779.500000,277.900000L757.100000,273.700000L753.800000,285.200000L775,293.500000C774.632584,296.853986,774.565651,300.234098,774.800000,303.600000L753.300000,311.200000L756.200000,322.800000L778.700000,319.400000C780.036473,322.489059,781.677943,325.437005,783.600000,328.200000L768.900000,345.500000L777.200000,354.100000L795,340C797.707008,342.037519,800.623482,343.780699,803.700000,345.200000L799.600000,367.600000L811.100000,370.800000L819.300000,349.600000C822.654109,349.983170,826.038961,350.016683,829.400000,349.700000L837.100000,371.100000L848.700000,368.100000L845.200000,345.600000C848.311048,344.267590,851.262833,342.590439,854,340.600000L871.400000,355.300000L879.900000,346.900000L865.600000,329.200000C867.563363,326.462641,869.270567,323.550353,870.700000,320.500000L893.100000,324.500000L896.300000,313L875,304.900000C875.383188,301.579351,875.416705,298.227648,875.100000,294.900000M825.500000,330.400000C807.700000,330.400000,799.600000,317,799.600000,300.600000C799.600000,283.900000,806.600000,269.600000,825.900000,269.600000C836.500000,269.600000,846.500000,273.600000,847,285.200000L831.600000,285.200000C831.471096,283.773605,830.648331,282.502060,829.400000,281.800000C828.015355,280.951976,826.423694,280.502158,824.800000,280.500000C815.800000,280.500000,816.400000,290.500000,816.100000,296.800000L816.300000,297C819.100000,291.800000,824.400000,289.800000,830.700000,289.800000C842.200000,289.800000,850.400000,297.100000,850.400000,309.100000C850.300000,323.300000,838.600000,330.400000,825.500000,330.400000" fill="rgb(253,198,49)" stroke="none" stroke-width="1"/></g></g><g id="e7dwn7az36vi15_tr" transform="translate(314.349998,335.050018) rotate(0)"><path id="e7dwn7az36vi15" d="M389.300000,360.500000L392.500000,347.900000L369.100000,339.600000C369.434290,335.936997,369.367225,332.248430,368.900000,328.600000L392,319.600000L388.400000,307.100000L364,311.600000C362.412890,308.287307,360.503693,305.138807,358.300000,302.200000L373.800000,282.800000L364.400000,273.700000L345.600000,289.800000C342.604555,287.685813,339.385097,285.908404,336,284.500000L339.700000,260L327,256.900000L318.800000,280.300000C315.135345,280.015722,311.451899,280.082694,307.800000,280.500000L298.700000,257.500000L286.200000,261.100000L290.800000,285.500000C287.487307,287.087110,284.338807,288.996307,281.400000,291.200000L262,275.700000L253,285.100000L269.200000,303.900000C267.101871,306.940874,265.325652,310.191690,263.900000,313.600000L239.300000,310L236.200000,322.700000L259.600000,330.800000C259.298620,334.466637,259.399219,338.155240,259.900000,341.800000L236.900000,351L240.600000,363.500000L264.900000,358.800000C266.487110,362.112693,268.396307,365.261193,270.600000,368.200000L255.300000,387.700000L264.800000,396.700000L283.500000,380.400000C286.543812,382.465758,289.794722,384.208514,293.200000,385.600000L289.800000,410.200000L302.500000,413.200000L310.500000,389.700000C313.865902,389.934349,317.246014,389.867416,320.600000,389.500000L329.500000,412.600000L342.100000,409.100000L337.700000,384.700000C341.009985,383.147219,344.158588,381.271456,347.100000,379.100000L366.400000,394.600000L375.500000,385.300000L359.400000,366.400000C361.509069,363.383952,363.317701,360.168606,364.800000,356.800000ZM337,362.600000L289.200000,362.600000L289.200000,351.600000C296.500000,344.300000,320.400000,329.900000,320.400000,319.800000C320.400000,315.700000,317.600000,314,313.200000,314C309.709048,314.065248,306.910267,316.908454,306.900000,320.400000L290.500000,320.400000C291,307.300000,302.500000,303,314.800000,303C325.400000,303,337,306.900000,337,318.800000C337,332.200000,309.500000,351.200000,309.400000,351.400000L309.400000,351.600000L337,351.600000Z" transform="translate(-314.349998,-335.050018)" fill="rgb(253,198,49)" stroke="none" stroke-width="1"/></g><g id="e7dwn7az36vi16_tr" transform="translate(686.449982,334.899979) rotate(0)"><path id="e7dwn7az36vi16" d="M765.200000,342.300000L765.300000,329.300000L740.600000,326.700000C740.056004,323.042644,739.117188,319.455025,737.800000,316L758.100000,301.800000L751.700000,290.400000L729.100000,300.500000C726.817188,297.634309,724.235998,295.019597,721.400000,292.700000L731.900000,270.200000L720.700000,263.600000L706.200000,283.700000C702.771431,282.384659,699.220658,281.413221,695.600000,280.800000L693.400000,256.100000L680.400000,256L677.900000,280.700000C674.282477,281.279134,670.731622,282.217096,667.300000,283.500000L653,263.200000L641.700000,269.700000L651.900000,292.300000C649.034259,294.582755,646.419541,297.163951,644.100000,300L621.600000,289.600000L615,301L635.200000,315.400000C633.884659,318.828569,632.913221,322.379342,632.300000,326L607.600000,328.300000L607.600000,341.300000L632.300000,343.700000C632.878892,347.328156,633.851294,350.882454,635.200000,354.300000L615,368.700000L621.500000,380L644.100000,369.700000C646.443976,372.544003,649.055997,375.156024,651.900000,377.500000L641.400000,400L652.700000,406.500000L667,386.300000C670.431622,387.582904,673.982477,388.520866,677.600000,389.100000L680,413.800000L693,413.800000L695.300000,389.100000C698.615349,388.574882,701.866471,387.703447,705,386.500000L719.100000,406.900000L730.500000,400.500000L720.500000,377.800000C723.373992,375.492415,726.019493,372.913888,728.400000,370.100000L750.800000,380.700000L757.500000,369.500000L737.500000,354.900000C738.802097,351.459226,739.805797,347.912820,740.500000,344.300000ZM709.100000,362.600000L661.300000,362.600000L661.300000,351.600000C668.600000,344.300000,692.500000,329.900000,692.500000,319.800000C692.500000,315.700000,689.700000,314,685.300000,314C681.809048,314.065248,679.010267,316.908454,679,320.400000L662.600000,320.400000C663.100000,307.300000,674.600000,303,686.900000,303C697.500000,303,709.100000,306.900000,709.100000,318.800000C709.100000,332.200000,681.600000,351.200000,681.500000,351.400000L681.500000,351.600000L709.300000,351.600000L709.300000,362.600000Z" transform="translate(-686.449982,-334.899979)" fill="rgb(253,198,49)" stroke="none" stroke-width="1"/></g></g><g id="e7dwn7az36vi17"><path id="e7dwn7az36vi18" d="M483.700000,103.100000C484.900000,109,481.900000,112.300000,477.500000,113.600000C472.300000,115.100000,467,116.200000,461.700000,117.300000C459.632570,117.795329,457.523425,118.096635,455.400000,118.200000C451.700000,118.300000,448.600000,116.600000,447.600000,113C446.113042,107.883417,444.977068,102.671303,444.200000,97.400000C443.600000,93.500000,445.800000,90.400000,449.500000,89.200000C454.300000,87.700000,459.200000,86.600000,464.100000,85.500000C466.925952,84.848698,469.803702,84.447152,472.700000,84.300000C476.116828,84.003628,479.279234,86.125769,480.300000,89.400000C481.900000,94.600000,482.900000,99.800000,483.700000,103.100000M477,104.300000C476.200000,100.800000,475.500000,97.300000,474.500000,93.900000C473.800000,91.300000,472.400000,90.400000,469.700000,90.900000C464.500000,91.900000,459.300000,93.100000,454.100000,94.300000C453.084407,94.416805,452.169762,94.969360,451.593870,95.814002C451.017977,96.658645,450.837733,97.711927,451.100000,98.700000C451.700000,102.100000,452.500000,105.600000,453.300000,109C453.474220,110.017773,454.080582,110.910259,454.962608,111.447145C455.844633,111.984030,456.915915,112.112718,457.900000,111.800000C463.300000,110.700000,468.600000,109.500000,474,108.300000C475.854907,107.897188,477.132675,106.193498,477,104.300000" fill="rgb(255,255,255)" stroke="none" stroke-width="1"/><path id="e7dwn7az36vi19" d="M392.100000,141.600000C395.900000,142.200000,400.800000,142.800000,404.600000,143.300000C404.755882,143.318780,404.889945,143.419202,404.951795,143.563517C405.013644,143.707831,404.993906,143.874168,404.900000,144C403.773584,145.302852,402.571508,146.538319,401.300000,147.700000C399.900000,149.100000,399.400000,148.900000,398.300000,148.700000C397,148.500000,393.800000,147.900000,392.100000,147.700000C388.600000,147.200000,387.800000,147,385.900000,148.600000C383.700000,150.900000,377.500000,156.900000,377.500000,156.900000C378.900000,158.400000,380.500000,160.300000,382.300000,162C383.400000,163.100000,383.200000,163.900000,382.200000,164.800000C378.200000,168.400000,379.300000,168.700000,375.700000,164.800000C370.300000,159,364.800000,153.200000,359.300000,147.500000C358.200000,146.300000,358,145.500000,359.300000,144.300000C364.900000,139,370.400000,133.700000,376.100000,128.500000C379.682089,125.211738,385.235473,125.389446,388.600000,128.900000L390.100000,130.400000C393.800000,134.300000,394.200000,136.600000,392.100000,141.600000M366.800000,145.800000L373.500000,152.400000C377.300000,148.800000,381.800000,144.600000,385.800000,140.700000C387.300000,139.200000,387.200000,137.600000,385.900000,136C385.250882,135.250903,384.549097,134.549118,383.800000,133.900000C383.315440,133.346234,382.627192,133.012417,381.892321,132.974732C381.157451,132.937046,380.438665,133.198707,379.900000,133.700000C375.500000,137.500000,371.300000,141.500000,366.800000,145.800000" fill="rgb(255,255,255)" stroke="none" stroke-width="1"/><path id="e7dwn7az36vi20" d="M344.400000,187.100000C348.100000,181.100000,351.800000,175.200000,355.400000,169.300000C357.800000,165.500000,358.500000,165.100000,361.700000,168C361.941036,168.183997,362.098006,168.457151,362.135618,168.758048C362.173230,169.058944,362.088328,169.362332,361.900000,169.600000C357.700000,176.300000,353.300000,183.100000,349.200000,189.900000C352.300000,193,354.800000,192.800000,357.100000,189.300000C360.400000,184.200000,363.500000,179.100000,366.600000,173.900000C367.700000,172.100000,368.500000,171.800000,370.300000,173C373.500000,175.200000,373.400000,174.900000,371.500000,177.900000C368.600000,182.600000,365.700000,187.400000,362.700000,192.100000C362.015069,193.279253,361.210851,194.385053,360.300000,195.400000C357.100000,199.100000,353.600000,200.100000,349.300000,197.800000C345.251154,195.650729,341.343250,193.245865,337.600000,190.600000C333.800000,187.900000,332.800000,184.100000,334.800000,179.800000C336.500000,176.200000,338.800000,172.800000,340.800000,169.300000C342.500000,166.400000,344.400000,163.600000,346,160.700000C346.900000,159.200000,347.400000,158.800000,348.600000,159.600000C349.100000,159.900000,350.700000,160.800000,351.100000,161.100000C352.600000,162.100000,352.200000,162.600000,351.300000,164.100000C348.100000,169.100000,345,174.200000,341.900000,179.300000C339.700000,183.200000,340.200000,184.900000,344.400000,187.100000" fill="rgb(255,255,255)" stroke="none" stroke-width="1"/><path id="e7dwn7az36vi21" d="M625.400000,156.900000C622.413506,160.205488,617.364365,160.600638,613.900000,157.800000C611.300000,155.700000,604.800000,150,600.100000,145.900000C597.122628,143.340766,596.682295,138.893400,599.100000,135.800000C600.900000,133.400000,605.800000,127.700000,609.200000,123.600000C611.365686,121.050276,615.153355,120.653892,617.800000,122.700000C623.100000,126.800000,631.200000,133.300000,633.800000,135.900000C636.900000,139,636.800000,142,634.200000,145.400000C631.518468,149.419619,628.578960,153.261021,625.400000,156.900000M628.500000,143.200000C629.684212,141.682012,629.510484,139.510412,628.100000,138.200000C625,135.500000,619.800000,131,617.600000,129.200000C615.400000,127.400000,613.700000,127.600000,611.800000,129.700000C609.500000,132.100000,607.300000,134.700000,605.200000,137.300000C603.400000,139.600000,603.500000,141.300000,605.700000,143.300000C608.700000,146.100000,612.400000,149.100000,615.600000,151.700000C618,153.700000,619.600000,153.600000,621.800000,151.400000L628.500000,143.200000" fill="rgb(255,255,255)" stroke="none" stroke-width="1"/><path id="e7dwn7az36vi22" d="M653,189.700000C654.900000,193.800000,655.300000,193.600000,652.700000,195.200000C651.100000,196.200000,650.800000,196.400000,648,193C647.600000,193.200000,645.100000,194.900000,643.800000,195.800000C643.575541,195.949252,643.300334,196.001568,643.036767,195.945089C642.773199,195.888610,642.543594,195.728120,642.400000,195.500000L639.800000,191.500000C639.651598,191.292372,639.599470,191.031027,639.656856,190.782351C639.714243,190.533676,639.875622,190.321602,640.100000,190.200000L644.500000,187.300000C640.500000,181.200000,636.600000,175.300000,632.600000,169.400000C630.700000,166.500000,631,165.700000,633.700000,163.600000C637.100000,160.900000,639.700000,162.800000,644.700000,164.600000C650,166.600000,654.300000,168.600000,659.700000,170.400000C663.600000,171.700000,665.300000,174.200000,666.800000,177.200000C667.700000,179,666.700000,180.400000,665.100000,181.500000C661.700000,183.800000,658.200000,186.100000,654.800000,188.300000C654.200000,188.800000,653.600000,189.200000,653,189.700000M659.400000,177.400000C659.600000,177.200000,659.600000,176.900000,659.300000,176.800000C656.200000,175.500000,641.700000,169.300000,639,168.300000C638.800000,168.200000,638.600000,168.500000,638.700000,168.700000C640.200000,171,645.400000,178.800000,648.500000,183.400000C648.643594,183.628120,648.873199,183.788610,649.136767,183.845089C649.400334,183.901568,649.675541,183.849252,649.900000,183.700000C653,181.600000,657.800000,178.500000,659.400000,177.400000" fill="rgb(255,255,255)" stroke="none" stroke-width="1"/><path id="e7dwn7az36vi23" d="M430.900000,117.200000C434.500000,118.700000,439.200000,120.900000,442.800000,122.400000C443.100000,122.500000,443.200000,123,443,123.100000C441.673212,123.905344,440.304621,124.639710,438.900000,125.300000C436.900000,126.400000,436.300000,126.200000,435.200000,125.700000C434.100000,125.200000,431.100000,123.800000,429.500000,123.100000C426.300000,121.800000,425.500000,121.300000,423.300000,122.300000C420.600000,124,413.100000,128.200000,413.100000,128.200000C414,130,415.100000,132.200000,416.400000,134.400000C417.200000,135.800000,416.800000,136.500000,415.500000,137.100000C410.700000,139.500000,411.700000,140.100000,409.200000,135.400000C405.400000,128.400000,401.700000,121.400000,397.900000,114.400000C397.100000,113,397.200000,112.100000,398.700000,111.300000C405.500000,107.700000,412.200000,103.900000,419.100000,100.400000C423.420336,98.211773,428.697642,99.794965,431.100000,104C431.400000,104.600000,431.800000,105.200000,432.100000,105.800000C434.400000,110.600000,434.200000,113,430.900000,117.200000M405.400000,114.700000L410.100000,122.800000C414.700000,120.300000,420.100000,117.400000,425.100000,114.700000C427,113.700000,427.300000,112.100000,426.400000,110.200000C425.993529,109.302244,425.525757,108.433525,425,107.600000C424.100000,106.200000,422.700000,105.600000,421.300000,106.400000C416,109,410.800000,111.800000,405.400000,114.700000" fill="rgb(255,255,255)" stroke="none" stroke-width="1"/><path id="e7dwn7az36vi24" d="M523.400000,103.300000C525.600000,106.500000,528.400000,110.200000,530.600000,113.400000C530.800000,113.600000,530.700000,114.100000,530.400000,114.100000C528.226028,114.048162,526.056324,113.881262,523.900000,113.600000C522.800000,113.500000,522.700000,113,522.200000,112.300000C521.400000,111.200000,520,109,519,107.600000C517,104.800000,516.600000,104,514.100000,103.700000C510.900000,103.700000,502.300000,103.400000,502.300000,103.400000C502.200000,105.400000,501.900000,107.900000,501.900000,110.400000C501.900000,112,501.200000,112.400000,499.800000,112.200000C494.500000,111.800000,495,112.800000,495.300000,107.500000C495.700000,99.600000,496.200000,91.600000,496.600000,83.700000C496.700000,82.100000,497.200000,81.400000,498.900000,81.500000C506.600000,82,514.300000,82.300000,522,82.800000C526.809581,83.209464,530.480496,87.273692,530.400000,92.100000C530.416592,92.801487,530.383174,93.503264,530.300000,94.200000C529.900000,99.500000,528.500000,101.400000,523.400000,103.300000M503,87.800000L502.800000,97.200000C508.100000,97.500000,514.200000,97.800000,519.800000,98.100000C521.900000,98.200000,523,97,523.200000,94.900000C523.300000,93.900000,523.300000,92.900000,523.300000,91.900000C523.300000,90.200000,522.400000,89,520.800000,88.900000C515,88.500000,509.200000,88.200000,503,87.800000" fill="rgb(255,255,255)" stroke="none" stroke-width="1"/><path id="e7dwn7az36vi25" d="M588.700000,123.400000C592.500000,126,592.600000,125.600000,591.200000,128.300000C590.400000,129.900000,590.200000,130.300000,586,128.800000C585.800000,129.200000,584.500000,131.900000,583.800000,133.400000C583.530326,133.900700,582.925847,134.116585,582.400000,133.900000L578.100000,131.800000C577.856298,131.700099,577.670155,131.496291,577.592698,131.244554C577.515241,130.992818,577.554612,130.719621,577.700000,130.500000L580,125.700000C573.500000,122.500000,567.100000,119.400000,560.700000,116.300000C557.500000,114.800000,557.400000,114,558.700000,110.800000C560.300000,106.800000,563.400000,107.100000,568.700000,106.100000C574.200000,105.100000,579,104.700000,584.600000,103.500000C588.600000,102.600000,591.400000,103.900000,594.200000,105.700000C595.900000,106.800000,595.700000,108.500000,594.900000,110.200000L589.500000,121.300000C589.200000,122.100000,588.900000,122.800000,588.700000,123.400000M588,109.600000C588.100000,109.400000,587.900000,109.100000,587.600000,109.100000C584.200000,109.500000,568.600000,111.600000,565.800000,112.100000C565.600000,112.100000,565.500000,112.500000,565.700000,112.600000C568.200000,113.800000,576.600000,117.900000,581.600000,120.300000C582.097248,120.512124,582.673054,120.290660,582.900000,119.800000C584.600000,116.400000,587.100000,111.300000,588,109.600000" fill="rgb(255,255,255)" stroke="none" stroke-width="1"/></g><g id="e7dwn7az36vi26"><g id="e7dwn7az36vi27"><g id="e7dwn7az36vi28"><path id="e7dwn7az36vi29" d="M396.200000,468.800000L397,466.100000C397.856830,463.680557,398.558257,461.208859,399.100000,458.700000C399.596664,461.134000,400.231017,463.537862,401,465.900000L401.900000,468.700000L396.200000,468.700000ZM394.400000,448.800000L382.900000,479.900000L392.600000,479.900000L394.100000,475.500000L404.100000,475.500000L405.600000,479.900000L415.300000,479.900000L403.800000,448.800000Z" fill="rgb(255,255,255)" stroke="none" stroke-width="1"/><path id="e7dwn7az36vi30" d="M455.600000,454.400000C454.700000,457.900000,453.600000,462,453,464.600000C452.500000,466.900000,452.400000,468,452,470.400000C451.700000,468,451.500000,466.900000,451.100000,464.800000C450.400000,461.800000,449.500000,458.100000,448.500000,454.300000L446.900000,448.700000L437.200000,448.700000L446.500000,479.800000L457.200000,479.800000L466.800000,448.700000L457,448.700000Z" fill="rgb(255,255,255)" stroke="none" stroke-width="1"/><path id="e7dwn7az36vi31" d="M503.200000,467.500000L518,467.500000L518,460.300000L503.200000,460.300000L503.200000,456.400000L519.500000,456.400000L519.500000,448.800000L493.700000,448.800000L493.700000,479.900000L519.900000,479.900000L519.900000,472L503.100000,472L503.100000,467.500000Z" fill="rgb(255,255,255)" stroke="none" stroke-width="1"/><path id="e7dwn7az36vi32" d="M563.700000,462.400000L558.500000,462.400000L558.500000,456.100000L563.200000,456.100000C566.200000,456.100000,567.700000,457.100000,567.700000,459.200000C567.700000,461.300000,566.400000,462.400000,563.700000,462.400000M577.100000,476.600000L577,475.500000L576.900000,474.400000C576.866521,473.493848,576.766249,472.591400,576.600000,471.700000C576.400499,470.442222,575.995066,469.225923,575.400000,468.100000C574.716749,466.907393,573.610286,466.015084,572.300000,465.600000C575.191661,464.188620,576.990612,461.216440,576.900000,458C576.963786,454.844785,575.319732,451.900782,572.600000,450.300000C570.700000,449.200000,568.700000,448.800000,565,448.800000L549,448.800000L549,479.900000L558.500000,479.900000L558.500000,468.900000L562.500000,468.900000C566.200000,468.900000,567.300000,470.200000,567.700000,475.200000C568.100000,479.100000,568.100000,479,568.400000,479.900000L577.900000,479.900000L577.700000,479.600000C577.362487,478.632488,577.160569,477.622901,577.100000,476.600000" fill="rgb(255,255,255)" stroke="none" stroke-width="1"/><path id="e7dwn7az36vi33" d="M615.900000,448.800000L606.400000,448.800000L606.400000,479.900000L629.800000,479.900000L629.800000,471.800000L615.900000,471.800000Z" fill="rgb(255,255,255)" stroke="none" stroke-width="1"/><path id="e7dwn7az36vi34" d="M668.900000,453.100000C667.400000,456.200000,666.400000,458.500000,665.600000,460.600000C664.762976,458.280209,663.794747,456.009880,662.700000,453.800000L660.400000,448.800000L649.800000,448.800000L660.900000,468.500000L660.900000,479.900000L670.400000,479.900000L670.400000,468.700000L681.500000,448.800000L671,448.800000Z" fill="rgb(255,255,255)" stroke="none" stroke-width="1"/><path id="e7dwn7az36vi35" d="M350.300000,454.400000C349.600000,457.700000,349.300000,459.200000,348.500000,463.700000C348.028107,466.041691,347.727312,468.414629,347.600000,470.800000C347.467051,468.486460,347.199935,466.182586,346.800000,463.900000C346.400000,461.800000,345.600000,457.500000,345.100000,455L343.800000,448.800000L335.400000,448.800000L333.900000,456C333.400000,458.300000,332.700000,462.400000,332.400000,464.400000C332.100000,466.400000,331.900000,467.800000,331.700000,470.700000C331.287623,465.685078,330.519017,460.705844,329.400000,455.800000L327.800000,448.700000L318.400000,448.700000L326.900000,479.800000L336.300000,479.800000L337.700000,472.100000C338.557461,467.970497,339.191715,463.797778,339.600000,459.600000C340.045459,463.832139,340.713046,468.037940,341.600000,472.200000L343.100000,479.800000L352.300000,479.800000L360.800000,448.700000L351.400000,448.700000Z" fill="rgb(255,255,255)" stroke="none" stroke-width="1"/></g><path id="e7dwn7az36vi36" d="M294.300000,517.300000C291.700000,515.700000,289.200000,515.400000,283.900000,515.400000L274.800000,515.400000L274.800000,530.800000L283.600000,530.800000C288.900000,530.800000,291.900000,530.200000,294.300000,528.900000ZM294.300000,566.900000L294.300000,546.400000C291.600000,545.100000,288.400000,544.400000,283.300000,544.400000L275.100000,544.400000L275.100000,566.800000L254.800000,566.800000L254.800000,502.700000L283.800000,502.700000C297.500000,502.700000,306.800000,505.100000,314.200000,510.600000L314.200000,532.300000C311.200000,534.300000,306.900000,535.700000,301.600000,536.700000C306.800000,537.600000,311.700000,539.300000,314.600000,541.300000L314.600000,566.700000L294.300000,566.700000Z" fill="rgb(255,255,255)" stroke="none" stroke-width="1"/><path id="e7dwn7az36vi37" d="M431.900000,542.700000C429.200000,541.400000,426.400000,540.800000,420.900000,540.800000L412.600000,540.800000L412.600000,555L421.100000,555C426.500000,555,429.700000,554.600000,432,553.300000L432,542.700000ZM431.400000,516.700000C429.100000,515.500000,426,514.900000,420.500000,514.900000L412.500000,514.900000L412.500000,528.100000L420.800000,528.100000C426.100000,528.100000,429,527.600000,431.400000,526.200000ZM421,566.900000L392.600000,566.900000L392.600000,502.800000L420.500000,502.800000C433.400000,502.800000,444.200000,505.300000,451.400000,510.100000L451.400000,529.100000C448.300000,531.300000,444,533,438.500000,534C443.900000,534.700000,448.900000,536.700000,451.900000,539L451.900000,559.500000C444.900000,564.300000,434.300000,566.900000,421,566.900000" fill="rgb(255,255,255)" stroke="none" stroke-width="1"/><path id="e7dwn7az36vi38" d="M503.600000,518.500000C499.926492,517.116281,496.024980,516.437757,492.100000,516.500000C488.178028,516.475025,484.283259,517.152376,480.600000,518.500000L480.600000,551.200000C484.255092,552.659346,488.165027,553.373334,492.100000,553.300000C496.033371,553.353891,499.939535,552.640592,503.600000,551.200000ZM492.200000,568.100000C480.500000,568.100000,469.200000,565.400000,460.500000,560.300000L460.500000,509.500000C469,504.400000,480.300000,501.800000,492.200000,501.800000C503.800000,501.800000,515.100000,504.300000,523.700000,509.500000L523.700000,560.300000C515.200000,565.400000,503.900000,568,492.200000,568.100000" fill="rgb(255,255,255)" stroke="none" stroke-width="1"/><path id="e7dwn7az36vi39" d="M567.900000,518.900000L567.900000,567L547.600000,567L547.600000,518.900000L529.400000,518.900000L529.400000,502.900000L586,502.900000L586,518.900000Z" fill="rgb(255,255,255)" stroke="none" stroke-width="1"/><rect id="e7dwn7az36vi40" width="20.300000" height="64.100000" rx="0" ry="0" transform="matrix(1 0 0 1 592.50000000000000 502.89999999999998)" fill="rgb(255,255,255)" stroke="none" stroke-width="1"/><path id="e7dwn7az36vi41" d="M715.700000,568.100000C705,568,694.100000,566,685.400000,561.400000L685.400000,546.700000L705.500000,546.700000L705.500000,552.700000C708.771385,553.708121,712.176832,554.213880,715.600000,554.200000C719.026542,554.263373,722.439769,553.756458,725.700000,552.700000L725.700000,544.600000L685.400000,537L685.400000,508.400000C693.900000,503.900000,704.500000,501.700000,715.700000,501.700000C726.600000,501.700000,737.100000,503.700000,745.800000,508.400000L745.800000,523.100000L725.700000,523.100000L725.700000,517.100000C722.443835,516.034434,719.023232,515.560291,715.600000,515.700000C712.181889,515.652934,708.776435,516.124977,705.500000,517.100000L705.500000,525.700000L745.800000,533.400000L745.800000,561.400000C737.500000,565.900000,726.400000,568.100000,715.700000,568.100000" fill="rgb(255,255,255)" stroke="none" stroke-width="1"/><g id="e7dwn7az36vi42_tr" transform="translate(353.749985,534.700027) rotate(0)"><path id="e7dwn7az36vi42" d="M368.800000,516L366.200000,518.600000C365.867150,518.897421,365.377488,518.938226,365,518.700000C364.656853,518.431615,364.288458,518.197181,363.900000,518C363.543594,517.757811,363.382409,517.314551,363.500000,516.900000L364.900000,513.500000C365.023367,513.200489,365.273555,512.971364,365.582733,512.874746C365.891911,512.778128,366.228045,512.824028,366.500000,513C367.200000,513.400000,367.900000,513.900000,368.600000,514.400000C368.878116,514.555091,369.065741,514.833367,369.105238,515.149345C369.144736,515.465323,369.031383,515.781221,368.800000,516M374,519.700000C374.468192,520.343349,374.902128,521.010943,375.300000,521.700000C375.450140,521.977660,375.481719,522.304205,375.387568,522.605490C375.293416,522.906775,375.081523,523.157235,374.800000,523.300000L371.400000,524.700000C370.985497,524.886115,370.498137,524.708893,370.300000,524.300000C370.100861,523.943993,369.866342,523.608966,369.600000,523.300000C369.330576,522.930706,369.373168,522.419606,369.700000,522.100000L372.300000,519.500000C372.546307,519.287127,372.870729,519.187552,373.194048,519.225589C373.517367,519.263627,373.809822,519.435776,374,519.700000M378.200000,528.600000C378.414442,529.389298,378.581407,530.190733,378.700000,531C378.756276,531.323887,378.666091,531.656059,378.453744,531.907014C378.241397,532.157970,377.928734,532.301891,377.600000,532.300000L373.900000,532.300000C373.455074,532.264088,373.087828,531.937647,373,531.500000C372.900000,531.100000,372.900000,530.700000,372.800000,530.300000C372.683497,529.887570,372.900154,529.454256,373.300000,529.300000L376.700000,527.900000C376.988097,527.753182,377.327771,527.747291,377.620786,527.884031C377.913800,528.020771,378.127470,528.284889,378.200000,528.600000M356,514.500000L356,510.800000C355.998109,510.471266,356.142030,510.158603,356.392986,509.946256C356.643941,509.733909,356.976113,509.643724,357.300000,509.700000C358.109267,509.818593,358.910702,509.985558,359.700000,510.200000C360.011825,510.282442,360.275246,510.490991,360.427029,510.775584C360.578812,511.060178,360.605252,511.395117,360.500000,511.700000L359,515C358.828967,515.384207,358.409986,515.593698,358,515.500000C357.609632,515.384738,357.206650,515.317575,356.800000,515.300000C356.587007,515.302714,356.381943,515.219300,356.231322,515.068678C356.080700,514.918057,355.997286,514.712993,356,514.500000M378.700000,538.400000C378.581407,539.209267,378.414442,540.010702,378.200000,540.800000C378.117558,541.111825,377.909009,541.375246,377.624416,541.527029C377.339822,541.678812,377.004883,541.705252,376.700000,541.600000L373.300000,540.200000C372.915793,540.028967,372.706302,539.609986,372.800000,539.200000C372.915262,538.809632,372.982425,538.406650,373,538C373.087828,537.562353,373.455074,537.235912,373.900000,537.200000L377.600000,537.200000C377.912988,537.188875,378.215137,537.315433,378.426764,537.546299C378.638392,537.777165,378.738248,538.089159,378.700000,538.400000M366.400000,541.900000L361,536.500000C361.300106,535.318763,361.300106,534.081237,361,532.900000L366.400000,527.500000C368.900291,531.974403,368.900291,537.425597,366.400000,541.900000M375.400000,547.700000C375,548.400000,374.500000,549.100000,374,549.800000C373.796505,550.052489,373.495865,550.207325,373.172139,550.226368C372.848413,550.245411,372.531694,550.126890,372.300000,549.900000L369.700000,547.300000C369.402579,546.967150,369.361774,546.477488,369.600000,546.100000C369.868385,545.756853,370.102819,545.388458,370.300000,545C370.542189,544.643594,370.985449,544.482409,371.400000,544.600000L374.800000,546C375.120296,546.128559,375.369732,546.388802,375.484600,546.714259C375.599467,547.039716,375.568643,547.398874,375.400000,547.700000M368.800000,553.500000C369.026890,553.731694,369.145411,554.048413,369.126368,554.372139C369.107325,554.695865,368.952489,554.996505,368.700000,555.200000C368.072309,555.690534,367.403118,556.125508,366.700000,556.500000C366.422340,556.650140,366.095795,556.681719,365.794510,556.587568C365.493225,556.493416,365.242765,556.281523,365.100000,556L363.700000,552.600000C363.513885,552.185497,363.691107,551.698137,364.100000,551.500000C364.456007,551.300861,364.791034,551.066342,365.100000,550.800000C365.469294,550.530576,365.980394,550.573168,366.300000,550.900000ZM346.400000,547.600000L351.800000,542.200000C352.981237,542.500106,354.218763,542.500106,355.400000,542.200000L360.800000,547.600000C356.325597,550.100291,350.874403,550.100291,346.400000,547.600000M359.100000,554.500000L360.500000,557.900000C360.626114,558.204063,360.609427,558.548625,360.454519,558.839077C360.299611,559.129529,360.022766,559.335340,359.700000,559.400000C358.910708,559.614465,358.109271,559.781431,357.300000,559.900000C356.976113,559.956276,356.643941,559.866091,356.392986,559.653744C356.142030,559.441397,355.998109,559.128734,356,558.800000L356,555.100000C356.035912,554.655074,356.362353,554.287828,356.800000,554.200000C357.200000,554.100000,357.600000,554.100000,358,554C358.212096,553.919206,358.447695,553.926590,358.654314,554.020508C358.860934,554.114427,359.021412,554.287077,359.100000,554.500000M328.500000,531.100000C328.618593,530.290733,328.785558,529.489298,329,528.700000C329.082442,528.388175,329.290991,528.124754,329.575584,527.972971C329.860178,527.821188,330.195117,527.794748,330.500000,527.900000L333.900000,529.300000C334.284207,529.471033,334.493698,529.890014,334.400000,530.300000C334.284738,530.690368,334.217575,531.093350,334.200000,531.500000C334.112172,531.937647,333.744926,532.264088,333.300000,532.300000L329.600000,532.300000C329.279326,532.339335,328.959405,532.221322,328.741094,531.983164C328.522783,531.745006,328.432981,531.416050,328.500000,531.100000M351.200000,555.100000L351.200000,558.800000C351.201891,559.128734,351.057970,559.441397,350.807014,559.653744C350.556059,559.866091,350.223887,559.956276,349.900000,559.900000C349.090729,559.781431,348.289292,559.614465,347.500000,559.400000C347.188175,559.317558,346.924754,559.109009,346.772971,558.824416C346.621188,558.539822,346.594748,558.204883,346.700000,557.900000L348.100000,554.500000C348.271033,554.115793,348.690014,553.906302,349.100000,554C349.490368,554.115262,349.893350,554.182425,350.300000,554.200000Q351.200000,554.350000,351.200000,555.100000M342.200000,556.100000C342.082556,556.404673,341.832424,556.639045,341.520762,556.736439C341.209101,556.833833,340.870025,556.783589,340.600000,556.600000C339.900000,556.200000,339.200000,555.700000,338.500000,555.200000C338.247511,554.996505,338.092675,554.695865,338.073632,554.372139C338.054589,554.048413,338.173110,553.731694,338.400000,553.500000L341,550.900000C341.302200,550.622509,341.752715,550.581553,342.100000,550.800000C342.443147,551.068385,342.811542,551.302819,343.200000,551.500000C343.556406,551.742189,343.717591,552.185449,343.600000,552.600000ZM333.200000,549.900000C332.731808,549.256651,332.297872,548.589057,331.900000,547.900000C331.749860,547.622340,331.718281,547.295795,331.812432,546.994510C331.906584,546.693225,332.118477,546.442765,332.400000,546.300000L335.800000,544.900000C336.214503,544.713885,336.701863,544.891107,336.900000,545.300000C337.099139,545.656007,337.333658,545.991034,337.600000,546.300000C337.869424,546.669294,337.826832,547.180394,337.500000,547.500000L334.900000,550.100000C334.369409,550.492637,333.624980,550.405057,333.200000,549.900000M329,541C328.785558,540.210702,328.618593,539.409267,328.500000,538.600000C328.443724,538.276113,328.533909,537.943941,328.746256,537.692986C328.958603,537.442030,329.271266,537.298109,329.600000,537.300000L333.300000,537.300000C333.744926,537.335912,334.112172,537.662353,334.200000,538.100000C334.315262,538.490368,334.382425,538.893350,334.400000,539.300000C334.516503,539.712430,334.299846,540.145744,333.900000,540.300000L330.500000,541.700000C330.209525,541.824475,329.879763,541.819235,329.593389,541.685594C329.307015,541.551953,329.091182,541.302582,329,541M340.800000,527.600000L346.200000,533C345.900087,534.147392,345.900087,535.352608,346.200000,536.500000L340.800000,541.900000C338.299967,537.461139,338.299967,532.038861,340.800000,527.600000M331.800000,521.800000C332.200000,521.100000,332.700000,520.400000,333.200000,519.700000C333.403495,519.447511,333.704135,519.292675,334.027861,519.273632C334.351587,519.254589,334.668306,519.373110,334.900000,519.600000L337.500000,522.200000C337.797421,522.532850,337.838226,523.022512,337.600000,523.400000C337.331615,523.743147,337.097181,524.111542,336.900000,524.500000C336.657811,524.856406,336.214551,525.017591,335.800000,524.900000L332.400000,523.500000C332.075121,523.376903,331.820997,523.116893,331.705370,522.789281C331.589742,522.461669,331.624361,522.099751,331.800000,521.800000M338.400000,516C338.173110,515.768306,338.054589,515.451587,338.073632,515.127861C338.092675,514.804135,338.247511,514.503495,338.500000,514.300000C339.127691,513.809466,339.796882,513.374492,340.500000,513C340.771955,512.824028,341.108089,512.778128,341.417267,512.874746C341.726445,512.971364,341.976633,513.200489,342.100000,513.500000L343.500000,516.900000C343.686115,517.314503,343.508893,517.801863,343.100000,518C342.743993,518.199139,342.408966,518.433658,342.100000,518.700000C341.730706,518.969424,341.219606,518.926832,340.900000,518.600000ZM357.200000,538.400000C355.211990,540.387097,351.989605,540.386604,350.002204,538.398898C348.014803,536.411192,348.014803,533.188808,350.002204,531.201102C351.989605,529.213396,355.211990,529.212903,357.200000,531.200000C358.160000,532.152000,358.700000,533.448000,358.700000,534.800000C358.700000,536.152000,358.160000,537.448000,357.200000,538.400000M360.700000,521.900000L355.300000,527.300000C354.180455,527.049986,353.019545,527.049986,351.900000,527.300000L346.500000,521.900000C350.928979,519.499491,356.271021,519.499491,360.700000,521.900000M348.100000,515.100000L346.700000,511.700000C346.573886,511.395937,346.590573,511.051375,346.745481,510.760923C346.900389,510.470471,347.177234,510.264660,347.500000,510.200000C348.289298,509.985558,349.090733,509.818593,349.900000,509.700000C350.223887,509.643724,350.556059,509.733909,350.807014,509.946256C351.057970,510.158603,351.201891,510.471266,351.200000,510.800000L351.200000,514.500000C351.164088,514.944926,350.837647,515.312172,350.400000,515.400000C350.009632,515.515262,349.606650,515.582425,349.200000,515.600000C348.762709,515.698740,348.313141,515.494390,348.100000,515.100000M376.400000,515.500000L378.600000,509.800000L373,512L374.200000,506.100000L369,509.200000L369.200000,503.200000L364.600000,507.100000L363.800000,501.100000L359.900000,505.700000L358.100000,499.900000L355,505.100000L352.300000,499.700000L350.100000,505.300000L346.600000,500.400000L345.300000,506.300000L341,502L340.700000,508L335.800000,504.500000L336.500000,510.500000L331,507.900000L332.700000,513.700000L326.900000,512L329.500000,517.500000L323.500000,516.800000L327,521.700000L321,522L325.300000,526.300000L319.400000,527.600000L324.300000,531.100000L318.700000,533.300000L324.100000,536L318.900000,539.100000L324.700000,540.900000L320.100000,544.800000L326.100000,545.600000L322.200000,550.200000L328.200000,550L325.100000,555.200000L331,554L328.800000,559.600000L334.500000,557.400000L333.300000,563.300000L338.500000,560.200000L338.300000,566.200000L342.900000,562.300000L343.700000,568.300000L347.600000,563.700000L349.400000,569.500000L352.500000,564.300000L355.200000,569.700000L357.400000,564.100000L360.900000,569L362.200000,563.100000L366.500000,567.400000L366.800000,561.400000L371.700000,564.900000L371,558.900000L376.500000,561.500000L374.800000,555.700000L380.600000,557.400000L378,551.900000L384,552.600000L380.500000,547.700000L386.500000,547.400000L382.200000,543.100000L388.100000,541.800000L383.200000,538.300000L388.800000,536.100000L383.400000,533.400000L388.600000,530.300000L382.800000,528.500000L387.400000,524.600000L381.400000,523.800000L385.300000,519.200000L379.300000,519.400000L382.400000,514.200000Z" transform="translate(-353.749985,-534.700027)" fill="rgb(255,255,255)" stroke="none" stroke-width="1"/></g><g id="e7dwn7az36vi43_tr" transform="translate(648.837158,534.849930) rotate(0)"><path id="e7dwn7az36vi43" d="M655.800000,558.800000L655.800000,548.100000C657.431865,547.738062,658.988377,547.095155,660.400000,546.200000L668,553.800000C664.477702,556.569229,660.252642,558.300811,655.800000,558.800000M638,553.800000L645.600000,546.200000C646.990086,547.135995,648.554574,547.782196,650.200000,548.100000L650.200000,558.800000C645.747358,558.300811,641.522298,556.569229,638,553.800000M629,537.600000L639.700000,537.600000C640.061938,539.231865,640.704845,540.788377,641.600000,542.200000L634,549.800000C631.230771,546.277702,629.499189,542.052642,629,537.600000M634,519.800000L641.600000,527.400000C640.664005,528.790086,640.017804,530.354574,639.700000,532L629,532C629.499189,527.547358,631.230771,523.322298,634,519.800000M650.200000,510.800000L650.200000,521.500000C648.568135,521.861938,647.011623,522.504845,645.600000,523.400000L638,515.800000C641.522298,513.030771,645.747358,511.299189,650.200000,510.800000M668,515.800000L660.400000,523.400000C659.009914,522.464005,657.445426,521.817804,655.800000,521.500000L655.800000,510.800000C660.252642,511.299189,664.477702,513.030771,668,515.800000M661,538.800000C659.474616,541.828315,656.390507,543.755883,653,543.800000C648.553107,543.830710,644.750418,540.608983,644.050138,536.217467C643.349858,531.825952,645.961945,527.581312,650.197844,526.227445C654.433744,524.873579,659.023450,526.816402,661,530.800000L678.900000,512.900000C679.139381,512.661670,679.273953,512.337794,679.273953,512C679.273953,511.662206,679.139381,511.338330,678.900000,511.100000L676.800000,509C676.265513,508.499589,675.434487,508.499589,674.900000,509L673.500000,510.400000C672.810590,509.778661,672.075158,509.210372,671.300000,508.700000L672.300000,506.900000C672.653700,506.264235,672.430928,505.462257,671.800000,505.100000L669.200000,503.600000C668.564235,503.246300,667.762257,503.469072,667.400000,504.100000L666.400000,505.800000C665.591906,505.406740,664.756386,505.072532,663.900000,504.800000L664.400000,502.900000C664.497962,502.568376,664.457584,502.211226,664.288056,501.909843C664.118528,501.608461,663.834276,501.388490,663.500000,501.300000L660.600000,500.500000C660.268376,500.402038,659.911226,500.442416,659.609843,500.611944C659.308461,500.781472,659.088490,501.065724,659,501.400000L658.500000,503.400000C657.647529,503.201641,656.775244,503.100993,655.900000,503.100000L655.900000,501.100000C655.889269,500.386522,655.313478,499.810731,654.600000,499.800000L651.600000,499.800000C650.886522,499.810731,650.310731,500.386522,650.300000,501.100000L650.300000,503.100000C649.393418,503.184323,648.492089,503.317853,647.600000,503.500000L647.100000,501.500000C647.011510,501.165724,646.791539,500.881472,646.490157,500.711944C646.188774,500.542416,645.831624,500.502038,645.500000,500.600000L642.600000,501.400000C642.265724,501.488490,641.981472,501.708461,641.811944,502.009843C641.642416,502.311226,641.602038,502.668376,641.700000,503L642.200000,504.900000C641.400000,505.200000,640.500000,505.600000,639.700000,505.900000L638.700000,504.200000C638.304180,503.613944,637.541376,503.402053,636.900000,503.700000L634.300000,505.200000C633.713944,505.595820,633.502053,506.358624,633.800000,507L634.800000,508.800000C634.100000,509.300000,633.400000,509.900000,632.700000,510.400000L631.300000,509C631.061670,508.760619,630.737794,508.626047,630.400000,508.626047C630.062206,508.626047,629.738330,508.760619,629.500000,509L627.400000,511.100000C626.899589,511.634487,626.899589,512.465513,627.400000,513L628.800000,514.400000C628.200000,515.100000,627.700000,515.800000,627.100000,516.600000L625.300000,515.600000C624.664235,515.246300,623.862257,515.469072,623.500000,516.100000L622,518.700000C621.646300,519.335765,621.869072,520.137743,622.500000,520.500000L624.300000,521.500000C623.906707,522.308080,623.572499,523.143602,623.300000,524L621.400000,523.500000C621.068376,523.402038,620.711226,523.442416,620.409843,523.611944C620.108461,523.781472,619.888490,524.065724,619.800000,524.400000L619,527.300000C618.902038,527.631624,618.942416,527.988774,619.111944,528.290157C619.281472,528.591539,619.565724,528.811510,619.900000,528.900000L621.900000,529.400000C621.750731,530.260270,621.650568,531.128342,621.600000,532L619.600000,532C618.886522,532.010731,618.310731,532.586522,618.300000,533.300000L618.300000,536.300000C618.310731,537.013478,618.886522,537.589269,619.600000,537.600000L621.600000,537.600000C621.684283,538.506586,621.817814,539.407918,622,540.300000L620,540.800000C619.665724,540.888490,619.381472,541.108461,619.211944,541.409843C619.042416,541.711226,619.002038,542.068376,619.100000,542.400000L619.900000,545.300000C619.988490,545.634276,620.208461,545.918528,620.509843,546.088056C620.811226,546.257584,621.168376,546.297962,621.500000,546.200000L623.400000,545.700000C623.689930,546.550046,624.023711,547.384498,624.400000,548.200000L622.700000,549.200000C622.113944,549.595820,621.902053,550.358624,622.200000,551L623.700000,553.600000C624.095820,554.186056,624.858624,554.397947,625.500000,554.100000L627.300000,553.100000C627.800000,553.800000,628.300000,554.500000,628.900000,555.200000L627.500000,556.600000C626.999589,557.134487,626.999589,557.965513,627.500000,558.500000L629.600000,560.600000C629.838330,560.839381,630.162206,560.973953,630.500000,560.973953C630.837794,560.973953,631.161670,560.839381,631.400000,560.600000L632.800000,559.200000C633.489410,559.821339,634.224842,560.389628,635,560.900000L634,562.700000C633.646300,563.335765,633.869072,564.137743,634.500000,564.500000L637.100000,566C637.735765,566.353700,638.537743,566.130928,638.900000,565.500000L639.900000,563.800000C640.708080,564.193293,641.543602,564.527501,642.400000,564.800000L641.900000,566.700000C641.802038,567.031624,641.842416,567.388774,642.011944,567.690157C642.181472,567.991539,642.465724,568.211510,642.800000,568.300000L645.700000,569.100000C646.031624,569.197962,646.388774,569.157584,646.690157,568.988056C646.991539,568.818528,647.211510,568.534276,647.300000,568.200000L647.800000,566.300000C648.660270,566.449269,649.528342,566.549432,650.400000,566.600000L650.400000,568.600000C650.410731,569.313478,650.986522,569.889269,651.700000,569.900000L654.700000,569.900000C655.413478,569.889269,655.989269,569.313478,656,568.600000L656,566.600000C656.906586,566.515717,657.807918,566.382186,658.700000,566.200000L659.200000,568.200000C659.288490,568.534276,659.508461,568.818528,659.809843,568.988056C660.111226,569.157584,660.468376,569.197962,660.800000,569.100000L663.700000,568.300000C664.034276,568.211510,664.318528,567.991539,664.488056,567.690157C664.657584,567.388774,664.697962,567.031624,664.600000,566.700000L664.100000,564.800000C664.900000,564.500000,665.800000,564.100000,666.600000,563.800000L667.600000,565.500000C667.995820,566.086056,668.758624,566.297947,669.400000,566L672,564.500000C672.586056,564.104180,672.797947,563.341376,672.500000,562.700000L671.500000,560.900000C672.200000,560.400000,672.900000,559.800000,673.600000,559.300000L675,560.700000C675.534487,561.200411,676.365513,561.200411,676.900000,560.700000L679,558.600000C679.239381,558.361670,679.373953,558.037794,679.373953,557.700000C679.373953,557.362206,679.239381,557.038330,679,556.800000Z" transform="translate(-652.840000,-534.849930)" fill="rgb(255,255,255)" stroke="none" stroke-width="1"/></g></g></g><clipPath id="e7dwn7az36vi44"><rect id="e7dwn7az36vi45" width="1053.400000" height="814" rx="0" ry="0" transform="matrix(1 0 0 1 -26.70000000000005 -96)" fill="none" stroke="none" stroke-width="1"/></clipPath></g></g></g></svg>