<?xml version="1.0" encoding="UTF-8" standalone="no"?>
<svg
   xmlns:dc="http://purl.org/dc/elements/1.1/"
   xmlns:cc="http://creativecommons.org/ns#"
   xmlns:rdf="http://www.w3.org/1999/02/22-rdf-syntax-ns#"
   xmlns:svg="http://www.w3.org/2000/svg"
   xmlns="http://www.w3.org/2000/svg"
   xmlns:xlink="http://www.w3.org/1999/xlink"
   xmlns:sodipodi="http://sodipodi.sourceforge.net/DTD/sodipodi-0.dtd"
   xmlns:inkscape="http://www.inkscape.org/namespaces/inkscape"
   version="1.1"
   x="0px"
   y="0px"
   viewBox="0 0 256.29999 256.29998"
   enable-background="new 0 0 1000 600"
   xml:space="preserve"
   id="svg640"
   sodipodi:docname="7226 Gear Head Only.svg"
   inkscape:version="1.0.1 (3bc2e813f5, 2020-09-07)"
   width="256.29999"
   height="256.29999"><metadata
   id="metadata646"><rdf:RDF><cc:Work
       rdf:about=""><dc:format>image/svg+xml</dc:format><dc:type
         rdf:resource="http://purl.org/dc/dcmitype/StillImage" /><dc:title></dc:title></cc:Work></rdf:RDF></metadata><defs
   id="defs644" /><sodipodi:namedview
   pagecolor="#ffffff"
   bordercolor="#666666"
   borderopacity="1"
   objecttolerance="10"
   gridtolerance="10"
   guidetolerance="10"
   inkscape:pageopacity="0"
   inkscape:pageshadow="2"
   inkscape:window-width="1841"
   inkscape:window-height="844"
   id="namedview642"
   showgrid="false"
   inkscape:zoom="0.727"
   inkscape:cx="-157.66327"
   inkscape:cy="154.2"
   inkscape:window-x="0"
   inkscape:window-y="0"
   inkscape:window-maximized="0"
   inkscape:current-layer="g554"
   fit-margin-top="0"
   fit-margin-left="0"
   fit-margin-right="0"
   fit-margin-bottom="0" />

<g
   id="Size_1"
   display="none"
   transform="translate(-372.3,-135.4)">
	<g
   id="Logo"
   display="inline">
		<defs
   id="defs333">
			<rect
   id="SVGID_1_"
   x="104"
   y="-6"
   width="792"
   height="612" />
		</defs>
		<clipPath
   id="SVGID_2_">
			<use
   xlink:href="#SVGID_1_"
   overflow="visible"
   id="use335"
   x="0"
   y="0"
   width="100%"
   height="100%" />
		</clipPath>
		<path
   clip-path="url(#SVGID_2_)"
   fill="#ffffff"
   d="m 416.3,421.3 h -3.7 V 404 h 7.4 c 3,0 6,1 6,4.5 0,2.3 -1.5,3.7 -3.6,4.2 v 0 c 2.9,0.3 2.9,2.1 3.2,4.5 0.2,1.1 0.3,3.1 1,4.1 h -4.1 c -0.3,-1.5 -0.5,-3.1 -0.6,-4.7 -0.1,-1 -0.3,-2.3 -1.6,-2.3 h -3.9 v 7 z m 0,-9.9 h 3.1 c 1.6,0 2.6,-0.8 2.6,-2.4 0,-1.5 -1,-2.2 -2.6,-2.2 h -3.1 z"
   id="path338" />
		<polygon
   clip-path="url(#SVGID_2_)"
   fill="#ffffff"
   points="443.6,404 443.6,418.4 451.1,418.4 451.1,421.3 439.9,421.3 439.9,404 "
   id="polygon340" />
		<polygon
   clip-path="url(#SVGID_2_)"
   fill="#ffffff"
   points="466.3,421.3 466.3,415.6 460.4,404 464.8,404 468.3,411.9 472,404 475.8,404 470,415.6 470,421.3 "
   id="polygon342" />
		<path
   clip-path="url(#SVGID_2_)"
   fill="#ffffff"
   d="m 510,421.3 h -3.7 V 404 h 7.4 c 3,0 6,1 6,4.5 0,2.3 -1.5,3.7 -3.6,4.2 v 0 c 2.9,0.3 2.9,2.1 3.2,4.5 0.2,1.1 0.3,3.1 1,4.1 h -4.1 c -0.3,-1.5 -0.5,-3.1 -0.6,-4.7 -0.1,-1 -0.3,-2.3 -1.6,-2.3 h -4 z m 0,-9.9 h 3.1 c 1.6,0 2.6,-0.8 2.6,-2.4 0,-1.5 -1,-2.2 -2.6,-2.2 H 510 Z"
   id="path344" />
		<path
   clip-path="url(#SVGID_2_)"
   fill="#ffffff"
   d="m 532.7,412.6 c 0,-5.1 2.6,-9 8.3,-9 5.7,0 8.3,3.9 8.3,9 0,5.1 -2.6,9 -8.3,9 -5.7,0 -8.3,-3.9 -8.3,-9 m 4,0 c 0,3 0.7,6.3 4.4,6.3 3.7,0 4.4,-3.4 4.4,-6.3 0,-3 -0.7,-6.3 -4.4,-6.3 -3.7,0 -4.4,3.3 -4.4,6.3"
   id="path346" />
		<path
   clip-path="url(#SVGID_2_)"
   fill="#ffffff"
   d="M 563,421.3 V 404 h 6.5 c 3.1,-0.2 6.3,1.1 6.3,4.5 0,1.9 -1.3,3.2 -3,3.8 v 0 c 2.2,0.5 3.8,2 3.8,4.5 0,3.4 -4.3,4.7 -7,4.5 z m 6.6,-10.4 c 1.6,0 2.4,-0.6 2.4,-2 0,-1.4 -0.9,-2 -2.4,-2 h -2.9 v 4.1 h 2.9 z m 0,7.5 c 1.8,0 3,-0.3 3,-2.3 0,-2 -1.2,-2.3 -3,-2.3 h -2.9 v 4.6 z"
   id="path348" />
		<path
   clip-path="url(#SVGID_2_)"
   fill="#ffffff"
   d="m 589.2,412.6 c 0,-5.1 2.6,-9 8.3,-9 5.7,0 8.3,3.9 8.3,9 0,5.1 -2.6,9 -8.3,9 -5.7,0 -8.3,-3.9 -8.3,-9 m 4,0 c 0,3 0.7,6.3 4.4,6.3 3.7,0 4.4,-3.4 4.4,-6.3 0,-3 -0.7,-6.3 -4.4,-6.3 -3.7,0 -4.4,3.3 -4.4,6.3"
   id="path350" />
		<polygon
   clip-path="url(#SVGID_2_)"
   fill="#ffffff"
   points="617.8,404 631.9,404 631.9,406.8 626.7,406.8 626.7,421.3 623,421.3 623,406.8 617.8,406.8 "
   id="polygon352" />
		<rect
   x="644.70001"
   y="404"
   clip-path="url(#SVGID_2_)"
   fill="#ffffff"
   width="3.7"
   height="17.299999"
   id="rect354" />
		<path
   clip-path="url(#SVGID_2_)"
   fill="#ffffff"
   d="m 672.5,409.6 c 0,-1.8 -1.1,-3.3 -3.3,-3.3 -2.6,0 -3.3,3.9 -3.3,6.3 0,2.4 0.7,6.3 3.3,6.3 2.2,0 3.3,-1.5 3.3,-3.3 h 4 c -0.2,4.3 -3.3,6 -7.3,6 -5,0 -7.3,-4 -7.3,-9 0,-5.1 2.3,-9 7.3,-9 4,0 7.1,1.6 7.3,6 z"
   id="path356" />
		<path
   clip-path="url(#SVGID_2_)"
   fill="#ffffff"
   d="m 699.2,408.9 c -0.1,-1.8 -1.1,-2.6 -2.9,-2.6 -1.4,0 -2.8,0.7 -2.8,2.2 0,1.9 1.7,2.1 3.2,2.4 2.6,0.7 6.5,1.4 6.5,4.9 0,4.3 -3.7,5.8 -7.5,5.8 -4,0 -6.8,-1.5 -6.6,-5.9 h 3.8 c -0.1,1.9 1,3.2 2.9,3.2 1.5,0 3.5,-0.5 3.5,-2.3 0,-2 -2.5,-2.2 -4,-2.6 -2.4,-0.6 -5.7,-1.7 -5.7,-4.8 0,-4 3.6,-5.7 7.2,-5.7 3.4,0 6,1.8 6,5.3 h -3.6 z"
   id="path358" />
		<path
   clip-path="url(#SVGID_2_)"
   fill="#fdc631"
   d="m 595.8,277.5 0.9,-10.6 -17.1,-5 c -0.1,-3.3 -0.4,-6.7 -0.9,-10 l 15.9,-8 -2.8,-10.2 -17.8,1.2 c -0.4,-1 -0.8,-2 -1.3,-3.1 -0.9,-2.1 -2,-4.1 -3,-6 l 12.2,-13 -6.1,-8.6 -16.3,7.3 c -2.3,-2.5 -4.7,-4.9 -7.2,-7.1 l 7,-16.4 -8.7,-6 -12.8,12.4 c -3,-1.6 -6,-3 -9.2,-4.2 l 0.9,-17.8 -10.3,-2.6 -7.8,16.1 c -3.3,-0.5 -6.7,-0.7 -10,-0.8 L 496,168 l -10.5,1.1 -1.8,17.8 c -2.5,0.5 -5,1.2 -7.5,2 l -10.4,-14.5 -9.7,4.3 3.9,17.3 c -2.9,1.7 -5.7,3.6 -8.3,5.7 l -14.7,-10.1 -7.6,7.4 9.7,15 c -2.1,2.6 -4.1,5.3 -5.9,8.2 l -17.3,-4.4 -4.6,9.5 14.3,10.8 c -1.1,3.2 -2,6.4 -2.7,9.7 l -17.8,1.8 -1,10.5 17.1,5.2 c 0,3.3 0.3,6.7 0.8,10 l -16.1,7.8 2.7,10.3 17.8,-1 c 0.5,1.4 1.1,2.8 1.7,4.1 0.8,1.7 1.6,3.4 2.5,5 l -12.4,12.9 6,8.7 16.4,-7 c 0,0 0,0 0,0 v 0 c 0,0 7.4,2.9 15.3,2.9 7.9,0 8.4,-2.2 8.4,-4.1 -1.3,0.3 -2.9,0.2 -2.9,0.2 0,0 10.6,-12 11.6,-21.7 1.2,9.3 -4,16.2 -6.1,18.6 4.1,0 9.6,-1.9 14.9,-3.9 5.3,-2 10,-4.8 15.7,-4.8 7.9,0 12,4.7 18.2,4.7 1.5,0 2.6,-0.7 2.6,-0.7 -1.7,-2.6 -3.1,-8 -3.8,-12.6 -0.7,-4.7 0.6,-10.3 0.6,-10.3 0,0 -1,0.6 -2.8,0.6 -2,0 -7.2,-1 -10.7,-4.6 2.9,-5.2 4.6,-13.2 4.6,-13.2 0,0 3.6,1 8.1,1 9.4,0 15.5,-2.4 15.5,-2.4 0,0 2.8,8.7 3.6,13.2 0.7,4.5 2.6,13.5 3.1,14.3 -2.5,1.1 -6,1.1 -6,1.1 0,0 0,14.5 -0.4,17 -0.4,2.5 -0.2,4.7 -2.8,4.7 -2.6,0 -5.4,-0.4 -7.2,-0.4 -1.8,0 -6.3,0.7 -7.1,1.1 -0.8,0.4 -1.8,5.3 -1.8,5.3 h 6.1 c 7.8,0 15.1,5.8 15.1,5.8 0,0 -14,5.2 -15.3,7.6 -1.4,-3 -14.1,-8.4 -17.5,-7.9 0.4,-4.7 -1.9,-16.9 -11,-16.9 -5.9,0 -9.6,5.6 -9.6,5.6 0,0 9.4,3.7 15.1,9.8 5.6,6.1 8.5,10.7 9,13.3 -8.7,-8.2 -16.3,-10.1 -32.2,-10.5 -15.1,-0.4 -16.7,1.6 -21,1.6 -2,0 -3.9,0 -5.4,0.1 l -3.9,8.8 8.6,6.1 13,-12.2 c 2.9,1.6 6,3 9.1,4.3 l -1.2,17.8 10.2,2.8 8,-16 c 3.3,0.5 6.7,0.8 10,0.9 l 5,17.1 10.6,-0.9 2,-17.7 c 3.3,-0.7 6.5,-1.5 9.7,-2.6 l 10.6,14.4 9.6,-4.5 -4.2,-17.4 c 2.9,-1.8 5.7,-3.7 8.3,-5.8 l 14.9,9.8 7.5,-7.5 -9.9,-14.9 c 2.1,-2.6 4,-5.4 5.8,-8.3 l 17.4,4.1 4.4,-9.6 -14.4,-10.6 c 1.1,-3.2 1.9,-6.4 2.6,-9.7 z m -84.9,-17.1 c -3.7,-0.2 -6.7,-1.4 -6.7,-1.4 0,0 -5.2,3.7 -9.3,6.2 -8.1,-0.6 -15.3,3.9 -15.3,3.9 0,0 1.6,-3.1 7.2,-4.5 5.9,-1.5 7.2,-2.4 10.5,-5 3.3,-2.6 6,-5.9 6,-5.9 0,0 3,2.2 8.1,2.2 12.1,0 17.8,-4.5 17.8,-4.5 l 2.1,3.4 c 0,0 -7,6.9 -20.4,5.6 m 19.9,-20.3 c 0,0 -2,-0.9 -5,6 l 1.7,-5.9 c 0,0 -7.5,-4.5 -22.9,-4.5 -23.4,0 -32.5,10.7 -36.2,19.2 -2.8,6.4 -2.2,17.3 -1.7,27.6 0.6,10.3 -5.6,26.5 -15.9,29.8 1.4,-2.7 2.4,-11.6 0.5,-19.5 1,-0.5 1.9,-1.1 2.8,-1.7 1.5,-1.1 3.1,-2.2 4.1,-3.8 l -0.1,-0.1 c -1.2,1.4 -2.8,2.3 -4.4,3.1 -0.9,0.4 -1.8,0.8 -2.7,1.2 -0.7,-2.4 -1.6,-4.7 -3,-6.6 -1.4,-2 -2.7,-4 -3.9,-6.3 1.4,-0.4 2.8,-0.8 4.2,-1.4 1.7,-0.7 3.5,-1.5 4.8,-2.8 l -0.1,-0.1 c -1.5,1.1 -3.3,1.6 -5,2.1 -1.5,0.4 -3,0.6 -4.5,0.9 -1.6,-3.6 -2.9,-8.1 -3.5,-14.9 0.3,0 0.5,0.1 0.8,0.1 1.9,0.1 3.7,0.1 5.6,0 1.9,-0.2 3.8,-0.4 5.5,-1.2 l -0.1,-0.1 c -1.7,0.6 -3.6,0.6 -5.4,0.5 -1.8,-0.1 -3.6,-0.4 -5.4,-0.7 -0.4,-0.1 -0.7,-0.2 -1.1,-0.2 -0.2,-2.5 -0.3,-5.3 -0.3,-8.5 0,-3.2 0.5,-6.7 1.5,-10.2 1.1,0.8 2.2,1.5 3.3,2.2 1.6,1 3.2,1.9 5,2.6 1.7,0.7 3.5,1.4 5.4,1.5 v -0.2 c -1.8,-0.3 -3.4,-1.2 -5,-2.1 -1.6,-0.9 -3,-2 -4.5,-3.1 -1.2,-1 -2.4,-2 -3.6,-3.1 1.7,-5 4.3,-10.2 7.8,-15 0.9,1.2 1.8,2.4 2.8,3.6 1.2,1.4 2.5,2.8 3.9,4.1 1.4,1.2 2.9,2.5 4.6,3.1 v -0.2 c -1.6,-0.8 -2.9,-2.2 -4.1,-3.6 -1.2,-1.4 -2.2,-2.9 -3.2,-4.4 -0.9,-1.5 -1.8,-3 -2.6,-4.5 3.7,-4.8 8.4,-9.2 13.8,-12.9 0.3,0.7 0.5,1.5 0.8,2.2 0.7,1.8 1.4,3.5 2.2,5.2 0.8,1.7 1.7,3.3 2.7,4.9 1,1.5 2.1,3.1 3.7,4.2 l 0.1,-0.1 c -1.3,-1.2 -2.2,-2.9 -3,-4.5 -0.8,-1.6 -1.4,-3.3 -2,-5.1 -0.6,-1.7 -1,-3.5 -1.5,-5.3 -0.2,-1 -0.5,-2 -0.7,-3 5,-3 10.6,-5.4 16.8,-6.9 0.1,0.6 0.1,1.1 0.2,1.7 0.3,1.9 0.6,3.7 1,5.5 0.4,1.8 0.9,3.6 1.5,5.4 0.7,1.7 1.4,3.5 2.7,4.9 l 0.1,-0.1 c -1,-1.5 -1.5,-3.3 -2,-5.1 -0.4,-1.8 -0.7,-3.6 -0.8,-5.4 -0.2,-1.8 -0.2,-3.6 -0.3,-5.5 0,-0.7 0,-1.4 0,-2.1 3.2,-0.6 6.5,-1 10,-1.2 3.9,-0.2 7.6,0 11.1,0.4 -0.2,0.6 -0.3,1.2 -0.4,1.8 -0.4,1.8 -0.8,3.7 -1,5.5 -0.3,1.9 -0.4,3.7 -0.5,5.6 0,1.9 0.1,3.8 0.8,5.5 l 0.1,-0.1 c -0.5,-1.8 -0.3,-3.6 -0.1,-5.4 0.2,-1.8 0.6,-3.6 1.1,-5.3 0.5,-1.8 1.1,-3.5 1.7,-5.2 0.3,-0.7 0.5,-1.4 0.8,-2.1 6.8,1 12.8,2.8 17.9,4.9 -0.4,0.7 -0.7,1.3 -1.1,2 -0.9,1.7 -1.7,3.3 -2.4,5.1 -0.7,1.7 -1.4,3.5 -1.9,5.3 -0.5,1.8 -0.9,3.7 -0.7,5.6 h 0.2 c 0,-1.8 0.7,-3.6 1.3,-5.3 0.7,-1.7 1.5,-3.3 2.4,-4.9 0.9,-1.6 1.9,-3.1 2.9,-4.6 0.5,-0.7 1,-1.4 1.5,-2.1 14.3,6.7 21.6,15.9 21.6,15.9 z"
   id="path360" />
		<path
   clip-path="url(#SVGID_2_)"
   fill="#fdc631"
   d="m 522.8,273.6 c -3.1,-0.2 -6.2,1.7 -6.2,1.7 2.8,1.1 4.2,3.7 4.2,3.7 0,0 1,-0.5 2.9,-0.2 1.7,0.3 2.8,1.3 2.8,1.3 -0.1,-2.4 0.6,-4.4 0.6,-4.4 0,0 -1.2,-2 -4.3,-2.1"
   id="path362" />
		<path
   clip-path="url(#SVGID_2_)"
   fill="#fdc631"
   d="m 310.7,295.9 v -9 l -17,-1.6 c -0.4,-2.5 -1.1,-5 -2,-7.3 l 13.9,-9.9 -4.5,-7.8 -15.5,7.1 c -1.6,-1.9 -3.4,-3.7 -5.4,-5.4 l 7.1,-15.6 -7.8,-4.5 -9.9,14 c -2.2,-0.8 -4.4,-1.4 -6.7,-1.8 l -1.4,-17 -9,-0.1 -1.8,17 c -2.5,0.4 -5,1 -7.3,1.9 l -9.7,-14.1 -7.8,4.4 6.9,15.6 c -2,1.6 -3.8,3.3 -5.4,5.3 l -15.5,-7.3 -4.6,7.7 13.8,10.1 c -0.9,2.4 -1.6,4.8 -2,7.3 l -17,1.5 -0.1,9 17,1.8 c 0.4,2.5 1,5 1.9,7.3 l -14,9.8 4.4,7.8 15.6,-7 c 1.6,2 3.3,3.8 5.3,5.4 l -7.2,15.5 7.8,4.5 10,-13.9 c 2.4,0.9 4.9,1.6 7.3,2 l 1.5,17 h 9 l 1.7,-17 c 2.5,-0.4 5,-1 7.3,-1.9 l 9.9,14 7.8,-4.5 -7.1,-15.6 c 1.9,-1.6 3.7,-3.4 5.4,-5.4 l 15.5,7.2 4.5,-7.8 -13.9,-9.9 c 0.9,-2.4 1.6,-4.9 2,-7.3 z m -37.2,-16.2 -16.5,35 h -11.6 l 16.9,-35 h -23.7 v -8.9 h 34.9 z"
   id="path364" />
		<path
   clip-path="url(#SVGID_2_)"
   fill="#fdc631"
   d="m 744.9,291.7 c -4.1,0 -6.8,2.6 -6.8,7.3 0,4.8 2.7,7.3 6.8,7.3 4.1,0 6.8,-2.6 6.8,-7.3 0,-4.7 -2.7,-7.3 -6.8,-7.3"
   id="path366" />
		<path
   clip-path="url(#SVGID_2_)"
   fill="#fdc631"
   d="m 782,287.9 16.1,-5.9 -2.3,-8.7 -16.8,2.7 c -1,-2.3 -2.3,-4.5 -3.8,-6.6 l 11,-13.1 -6.3,-6.4 -13.2,10.8 c -2.1,-1.5 -4.3,-2.8 -6.5,-3.8 l 2.9,-16.9 -8.7,-2.4 -6,16 c -2.5,-0.3 -5.1,-0.3 -7.6,0 l -5.9,-16.1 -8.7,2.3 2.8,16.9 c -2.1,0.9 -4.1,2.1 -6,3.4 l -13,-11.1 -6.5,6.2 10.7,13.4 c -1.5,2.1 -2.8,4.2 -3.9,6.5 l -16.8,-3.1 -2.5,8.6 15.9,6.2 c -0.3,2.5 -0.3,5.1 -0.1,7.6 l -16.1,5.7 2.2,8.7 16.9,-2.6 c 1,2.3 2.2,4.5 3.7,6.6 l -11.1,13 6.3,6.5 13.3,-10.7 c 2.1,1.5 4.2,2.8 6.5,3.9 l -3.1,16.8 8.7,2.4 6.2,-16 c 2.5,0.3 5.1,0.3 7.6,0.1 l 5.8,16.1 8.7,-2.2 -2.7,-16.9 c 2.3,-1 4.5,-2.2 6.6,-3.7 l 13.1,11 6.4,-6.3 -10.8,-13.3 c 1.5,-2.1 2.8,-4.3 3.9,-6.5 l 16.8,3 2.4,-8.7 -16,-6.1 c 0.2,-2.3 0.2,-4.8 -0.1,-7.3 m -37.3,26.7 c -13.4,0 -19.4,-10.1 -19.4,-22.4 0,-12.5 5.3,-23.3 19.8,-23.3 8,0 15.5,3 15.8,11.7 h -11.6 c -0.1,-1.1 -0.7,-2 -1.6,-2.5 -0.9,-0.6 -2.2,-0.9 -3.5,-0.9 -6.8,0 -6.3,7.5 -6.5,12.3 l 0.1,0.1 c 2.1,-3.9 6.1,-5.4 10.8,-5.4 8.7,0 14.8,5.5 14.8,14.5 0,10.6 -8.8,15.9 -18.7,15.9"
   id="path368" />
		<path
   clip-path="url(#SVGID_2_)"
   fill="#fdc631"
   d="m 416.8,337.2 2.4,-9.5 -17.6,-6.2 c 0.2,-2.8 0.2,-5.6 -0.1,-8.3 l 17.4,-6.8 -2.7,-9.4 -18.3,3.4 c -1.2,-2.5 -2.6,-4.9 -4.3,-7.1 l 11.6,-14.6 -7.1,-6.8 -14.1,12.2 c -2.2,-1.6 -4.7,-2.9 -7.2,-4 l 2.7,-18.4 -9.5,-2.4 -6.2,17.6 c -2.8,-0.2 -5.6,-0.2 -8.3,0.2 l -6.9,-17.3 -9.4,2.7 3.5,18.3 c -2.5,1.2 -4.9,2.6 -7.1,4.3 l -14.6,-11.6 -6.8,7.1 12.2,14.1 c -1.5,2.3 -2.9,4.7 -4,7.3 l -18.5,-2.7 -2.3,9.5 17.6,6.1 c -0.2,2.8 -0.1,5.6 0.2,8.3 l -17.3,6.9 2.8,9.4 18.3,-3.6 c 1.2,2.5 2.6,4.9 4.3,7.1 l -11.5,14.7 7.1,6.7 14,-12.3 c 2.3,1.5 4.7,2.9 7.3,3.9 l -2.6,18.5 9.5,2.3 6,-17.7 c 2.6,0.2 5.1,0.1 7.6,-0.1 l 6.7,17.4 9.4,-2.7 -3.3,-18.4 c 2.5,-1.2 4.9,-2.6 7.1,-4.2 l 14.5,11.7 6.8,-7 -12.1,-14.2 c 1.6,-2.2 2.9,-4.7 4,-7.2 z m -39.3,1.6 h -35.9 v -8.2 c 5.5,-5.5 23.4,-16.3 23.4,-23.9 0,-3.1 -2.1,-4.4 -5.4,-4.4 -2.9,0 -4.7,2.4 -4.8,4.8 h -12.4 c 0.4,-9.9 9,-13 18.2,-13 8,0 16.7,2.9 16.7,11.9 0,10.1 -20.7,24.4 -20.8,24.5 v 0.1 h 20.9 v 8.2 z"
   id="path370" />
		<path
   clip-path="url(#SVGID_2_)"
   fill="#fdc631"
   d="m 699.4,323.5 0.1,-9.8 -18.5,-1.9 c -0.4,-2.7 -1.1,-5.4 -2.1,-8 l 15.3,-10.7 -4.8,-8.5 -17,7.6 c -1.8,-2.2 -3.7,-4.2 -5.8,-5.9 l 7.9,-16.9 -8.5,-5 -11,15.1 c -2.6,-1 -5.2,-1.7 -8,-2.2 l -1.6,-18.6 -9.8,-0.1 -1.9,18.5 c -2.7,0.4 -5.4,1.1 -8,2.1 l -10.7,-15.1 -8.5,4.9 7.7,17 c -2.2,1.8 -4.1,3.7 -5.9,5.8 l -16.9,-7.8 -4.9,8.5 15.2,10.9 c -1,2.6 -1.7,5.3 -2.2,8 l -18.6,1.7 v 9.8 l 18.5,1.8 c 0.4,2.7 1.1,5.4 2.1,8 l -15.2,10.8 4.9,8.5 17,-7.8 c 1.8,2.2 3.7,4.1 5.8,5.8 l -7.7,17 8.5,4.9 10.8,-15.2 c 2.6,1 5.3,1.7 8,2.1 l 1.8,18.6 h 9.8 l 1.7,-18.6 c 2.5,-0.4 4.9,-1.1 7.3,-1.9 l 10.6,15.3 8.6,-4.8 -7.5,-17.1 c 2.2,-1.7 4.2,-3.7 5.9,-5.8 l 16.9,8 5,-8.4 -15.1,-11 c 1,-2.6 1.7,-5.2 2.2,-8 z m -42.2,15.3 h -35.9 v -8.2 c 5.5,-5.5 23.4,-16.3 23.4,-23.9 0,-3.1 -2.1,-4.4 -5.4,-4.4 -2.8,0 -4.7,2.4 -4.8,4.8 h -12.3 c 0.4,-9.9 9,-13 18.2,-13 8,0 16.7,2.9 16.7,11.9 0,10.1 -20.7,24.4 -20.8,24.5 v 0.1 h 20.9 z"
   id="path372" />
		<path
   clip-path="url(#SVGID_2_)"
   fill="#ffffff"
   d="m 487.8,143.7 c 0.9,4.4 -1.4,6.9 -4.7,7.9 -3.9,1.1 -7.9,1.9 -11.9,2.8 -1.6,0.3 -3.2,0.6 -4.8,0.7 -2.8,0.1 -5.1,-1.2 -5.9,-3.9 -1.1,-3.8 -1.9,-7.8 -2.5,-11.7 -0.4,-3 1.2,-5.2 4,-6.1 3.6,-1.1 7.3,-1.9 11,-2.8 2.1,-0.5 4.3,-0.8 6.5,-0.9 2.7,-0.1 4.9,1.2 5.7,3.8 1.2,3.8 2,7.7 2.6,10.2 m -5.1,0.9 c -0.6,-2.6 -1.1,-5.3 -1.8,-7.9 -0.6,-2 -1.6,-2.7 -3.6,-2.3 -3.9,0.8 -7.9,1.7 -11.8,2.6 -1.7,0.4 -2.6,1.6 -2.2,3.3 0.5,2.6 1,5.2 1.7,7.7 0.4,1.7 1.7,2.4 3.4,2.1 4,-0.8 8.1,-1.7 12.1,-2.7 1.4,-0.2 2.2,-1.2 2.2,-2.8"
   id="path374" />
		<path
   clip-path="url(#SVGID_2_)"
   fill="#ffffff"
   d="m 418.9,172.6 c 2.9,0.4 6.6,0.9 9.4,1.3 0.2,0 0.4,0.3 0.3,0.5 -1,1.2 -2.1,2.2 -2.7,2.8 -1.1,1.1 -1.5,0.9 -2.3,0.8 -1,-0.2 -3.4,-0.6 -4.7,-0.8 -2.6,-0.3 -3.2,-0.5 -4.7,0.7 -1.6,1.7 -6.3,6.3 -6.3,6.3 1,1.1 2.3,2.5 3.6,3.9 0.8,0.8 0.7,1.4 -0.1,2.1 -3,2.7 -2.2,2.9 -4.9,0 -4.1,-4.3 -8.2,-8.7 -12.3,-13 -0.9,-0.9 -1,-1.5 0,-2.4 4.2,-4 8.4,-8 12.6,-11.9 2.7,-2.5 6.8,-2.3 9.4,0.3 0.4,0.4 0.8,0.7 1.1,1.1 2.8,2.8 3.2,4.6 1.6,8.3 m -19,3.2 5,5 c 2.9,-2.7 6.2,-5.9 9.3,-8.8 1.1,-1.1 1.1,-2.3 0,-3.5 -0.5,-0.6 -1,-1.1 -1.6,-1.6 -0.9,-0.9 -2,-1 -3,-0.2 -3.2,2.9 -6.4,5.9 -9.7,9.1"
   id="path376" />
		<path
   clip-path="url(#SVGID_2_)"
   fill="#ffffff"
   d="m 383,206.9 c 2.8,-4.5 5.5,-9 8.3,-13.4 1.8,-2.9 2.3,-3.2 4.7,-1 0.3,0.3 0.4,0.8 0.2,1.2 -3.1,5.1 -6.5,10.2 -9.6,15.2 2.3,2.3 4.2,2.2 5.9,-0.4 2.5,-3.8 4.8,-7.7 7.1,-11.6 0.8,-1.3 1.5,-1.6 2.8,-0.7 2.4,1.6 2.3,1.5 0.9,3.7 -2.2,3.6 -4.4,7.1 -6.6,10.7 -0.5,0.9 -1.1,1.7 -1.8,2.5 -2.4,2.8 -5.1,3.5 -8.3,1.8 -3,-1.6 -6,-3.4 -8.8,-5.4 -2.8,-2 -3.6,-4.9 -2.1,-8.1 1.3,-2.7 3,-5.3 4.5,-7.9 1.3,-2.2 2.7,-4.3 3.9,-6.5 0.7,-1.1 1.1,-1.4 2,-0.8 0.4,0.2 1.5,0.9 1.9,1.1 1.1,0.7 0.8,1.2 0.2,2.2 -2.4,3.8 -4.8,7.6 -7.1,11.4 -1.6,3 -1.2,4.3 1.9,6"
   id="path378" />
		<path
   clip-path="url(#SVGID_2_)"
   fill="#ffffff"
   d="m 594.3,184.1 c -2.2,2.5 -6,2.8 -8.6,0.7 -2,-1.6 -6.8,-5.9 -10.3,-8.9 -2.2,-1.9 -2.5,-5.3 -0.7,-7.6 1.4,-1.8 5,-6.1 7.6,-9.2 1.6,-1.9 4.5,-2.2 6.5,-0.6 4,3.1 10.1,8 12,10 2.3,2.3 2.3,4.6 0.3,7.1 -1.3,1.6 -4.3,5.6 -6.8,8.5 m 2.3,-10.2 c 0.9,-1.1 0.8,-2.8 -0.3,-3.8 -2.4,-2.1 -6.2,-5.4 -7.9,-6.8 -1.6,-1.3 -2.9,-1.2 -4.4,0.3 -1.7,1.8 -3.4,3.7 -5,5.7 -1.4,1.7 -1.3,3 0.4,4.5 2.3,2.1 5,4.4 7.4,6.4 1.8,1.5 3,1.4 4.7,-0.3 1,-1.1 3.5,-4 5.1,-6"
   id="path380" />
		<path
   clip-path="url(#SVGID_2_)"
   fill="#ffffff"
   d="m 615,208.8 c 1.5,3.1 1.7,2.9 -0.3,4.2 -1.2,0.7 -1.4,0.9 -3.6,-1.6 -0.3,0.2 -2.2,1.4 -3.2,2.1 -0.4,0.2 -0.9,0.1 -1.1,-0.2 l -1.9,-3 c -0.2,-0.3 -0.1,-0.8 0.2,-1 l 3.3,-2.2 c -3,-4.6 -6,-9 -8.9,-13.5 -1.5,-2.2 -1.2,-2.8 0.8,-4.3 2.6,-2 4.5,-0.6 8.3,0.8 4,1.5 7.2,3 11.3,4.4 2.9,1 4.2,2.9 5.3,5.1 0.7,1.3 -0.1,2.4 -1.3,3.2 -2.6,1.7 -5.2,3.4 -7.7,5.1 -0.3,0.2 -0.7,0.6 -1.2,0.9 m 4.9,-9.2 c 0.2,-0.1 0.1,-0.4 0,-0.5 -2.4,-1 -13.3,-5.6 -15.3,-6.4 -0.2,-0.1 -0.3,0.1 -0.2,0.3 1.1,1.7 5.1,7.6 7.3,11 0.2,0.3 0.7,0.4 1.1,0.2 2.3,-1.5 5.9,-3.8 7.1,-4.6"
   id="path382" />
		<path
   clip-path="url(#SVGID_2_)"
   fill="#ffffff"
   d="m 448,154.3 c 2.7,1.2 6.3,2.8 8.9,3.9 0.2,0.1 0.3,0.4 0.1,0.5 -0.9,0.6 -2.5,1.4 -3.1,1.7 -1.5,0.8 -1.9,0.7 -2.8,0.3 -0.9,-0.4 -3.1,-1.4 -4.3,-1.9 -2.4,-1 -3,-1.4 -4.7,-0.6 -2,1.3 -7.7,4.4 -7.7,4.4 0.7,1.3 1.5,3 2.5,4.7 0.6,1 0.3,1.5 -0.7,2 -3.6,1.8 -2.9,2.3 -4.7,-1.2 -2.8,-5.3 -5.6,-10.5 -8.5,-15.8 -0.6,-1.1 -0.6,-1.7 0.6,-2.3 5.1,-2.7 10.2,-5.5 15.3,-8.2 3.2,-1.7 7.2,-0.5 9,2.7 0.3,0.5 0.5,0.9 0.8,1.4 2,3.5 1.8,5.3 -0.7,8.4 m -19.1,-1.9 3.6,6.1 c 3.5,-1.9 7.5,-4.1 11.2,-6.1 1.4,-0.8 1.7,-2 1,-3.4 -0.3,-0.7 -0.7,-1.3 -1.1,-2 -0.7,-1.1 -1.7,-1.5 -2.8,-0.9 -4,2 -7.8,4.1 -11.9,6.3"
   id="path384" />
		<path
   clip-path="url(#SVGID_2_)"
   fill="#ffffff"
   d="m 517.6,143.8 c 1.7,2.4 3.7,5.2 5.4,7.6 0.1,0.2 0,0.5 -0.2,0.5 -2.1,-0.1 -4,-0.3 -4.9,-0.4 -0.8,-0.1 -0.9,-0.5 -1.2,-1 -0.6,-0.9 -1.6,-2.5 -2.4,-3.5 -1.5,-2.1 -1.8,-2.7 -3.7,-2.9 -2.4,0 -8.9,-0.2 -8.9,-0.2 -0.1,1.5 -0.3,3.4 -0.3,5.3 0,1.2 -0.5,1.5 -1.6,1.4 -4,-0.3 -3.6,0.4 -3.4,-3.5 0.3,-6 0.7,-11.9 1,-17.9 0.1,-1.2 0.4,-1.8 1.7,-1.7 5.8,0.4 11.6,0.6 17.3,1 3.6,0.3 6.4,3.4 6.3,7 0,0.5 0,1.1 0,1.6 -0.2,3.9 -1.3,5.3 -5.1,6.7 m -15.3,-11.6 -0.2,7.1 c 4,0.2 8.6,0.5 12.8,0.6 1.6,0.1 2.4,-0.8 2.6,-2.4 0.1,-0.7 0.1,-1.5 0.1,-2.2 0,-1.3 -0.7,-2.2 -1.9,-2.3 -4.4,-0.3 -8.8,-0.5 -13.4,-0.8"
   id="path386" />
		<path
   clip-path="url(#SVGID_2_)"
   fill="#ffffff"
   d="m 566.7,159 c 2.8,1.9 3,1.7 1.9,3.7 -0.6,1.2 -0.8,1.5 -3.9,0.4 -0.2,0.3 -1.1,2.3 -1.7,3.4 -0.2,0.4 -0.7,0.6 -1.1,0.4 l -3.2,-1.6 c -0.4,-0.2 -0.5,-0.6 -0.3,-1 l 1.7,-3.6 c -4.9,-2.4 -9.7,-4.7 -14.5,-7.1 -2.4,-1.2 -2.5,-1.8 -1.5,-4.2 1.2,-3 3.5,-2.8 7.5,-3.5 4.2,-0.8 7.8,-1 11.9,-2 3,-0.7 5.1,0.3 7.2,1.7 1.3,0.8 1.2,2.1 0.5,3.4 -1.4,2.8 -2.7,5.6 -4.1,8.4 0,0.6 -0.2,1.1 -0.4,1.6 m -0.5,-10.4 c 0.1,-0.2 -0.1,-0.4 -0.3,-0.4 -2.5,0.3 -14.3,1.9 -16.4,2.2 -0.2,0 -0.2,0.3 -0.1,0.3 1.9,0.9 8.2,4 11.9,5.8 0.4,0.2 0.8,0 1,-0.3 1.3,-2.5 3.2,-6.3 3.9,-7.6"
   id="path388" />
		<polygon
   clip-path="url(#SVGID_2_)"
   fill="#ffffff"
   points="308.6,408.1 308.5,408.1 305.2,421.3 301,421.3 296.7,404 300.6,404 303.2,417 303.3,417 306.6,404 310.8,404 313.9,417 316.7,404 320.3,404 315.8,421.3 311.7,421.3 "
   id="polygon390" />
		<path
   clip-path="url(#SVGID_2_)"
   fill="#ffffff"
   d="M 330.7,421.3 337,404 h 4.4 l 6,17.3 h -3.7 l -1.2,-3.7 h -6.9 l -1.3,3.7 z m 10.8,-6.6 -2.4,-7.4 v 0 l -2.5,7.4 z"
   id="path392" />
		<polygon
   clip-path="url(#SVGID_2_)"
   fill="#ffffff"
   points="357.4,404 361.4,404 365.9,417.6 366,417.6 370.5,404 374.2,404 367.8,421.3 363.7,421.3 "
   id="polygon394" />
		<polygon
   clip-path="url(#SVGID_2_)"
   fill="#ffffff"
   points="390.7,418.4 398.8,418.4 398.8,421.3 387,421.3 387,404 398.6,404 398.6,406.8 390.7,406.8 390.7,410.9 398.1,410.9 398.1,413.8 390.7,413.8 "
   id="polygon396" />
	</g>
	<g
   id="Logo_1_"
   display="inline">
		<defs
   id="defs400">
			<rect
   id="SVGID_3_"
   x="104"
   y="-6"
   width="792"
   height="612" />
		</defs>
		<clipPath
   id="SVGID_4_">
			<use
   xlink:href="#SVGID_3_"
   overflow="visible"
   id="use402"
   x="0"
   y="0"
   width="100%"
   height="100%" />
		</clipPath>
		<path
   clip-path="url(#SVGID_4_)"
   fill="#ffffff"
   d="m 416.3,421.3 h -3.7 V 404 h 7.4 c 3,0 6,1 6,4.5 0,2.3 -1.5,3.7 -3.6,4.2 v 0 c 2.9,0.3 2.9,2.1 3.2,4.5 0.2,1.1 0.3,3.1 1,4.1 h -4.1 c -0.3,-1.5 -0.5,-3.1 -0.6,-4.7 -0.1,-1 -0.3,-2.3 -1.6,-2.3 h -3.9 v 7 z m 0,-9.9 h 3.1 c 1.6,0 2.6,-0.8 2.6,-2.4 0,-1.5 -1,-2.2 -2.6,-2.2 h -3.1 z"
   id="path405" />
		<polygon
   clip-path="url(#SVGID_4_)"
   fill="#ffffff"
   points="443.6,404 443.6,418.4 451.1,418.4 451.1,421.3 439.9,421.3 439.9,404 "
   id="polygon407" />
		<polygon
   clip-path="url(#SVGID_4_)"
   fill="#ffffff"
   points="466.3,421.3 466.3,415.6 460.4,404 464.8,404 468.3,411.9 472,404 475.8,404 470,415.6 470,421.3 "
   id="polygon409" />
		<path
   clip-path="url(#SVGID_4_)"
   fill="#ffffff"
   d="m 510,421.3 h -3.7 V 404 h 7.4 c 3,0 6,1 6,4.5 0,2.3 -1.5,3.7 -3.6,4.2 v 0 c 2.9,0.3 2.9,2.1 3.2,4.5 0.2,1.1 0.3,3.1 1,4.1 h -4.1 c -0.3,-1.5 -0.5,-3.1 -0.6,-4.7 -0.1,-1 -0.3,-2.3 -1.6,-2.3 h -4 z m 0,-9.9 h 3.1 c 1.6,0 2.6,-0.8 2.6,-2.4 0,-1.5 -1,-2.2 -2.6,-2.2 H 510 Z"
   id="path411" />
		<path
   clip-path="url(#SVGID_4_)"
   fill="#ffffff"
   d="m 532.7,412.6 c 0,-5.1 2.6,-9 8.3,-9 5.7,0 8.3,3.9 8.3,9 0,5.1 -2.6,9 -8.3,9 -5.7,0 -8.3,-3.9 -8.3,-9 m 4,0 c 0,3 0.7,6.3 4.4,6.3 3.7,0 4.4,-3.4 4.4,-6.3 0,-3 -0.7,-6.3 -4.4,-6.3 -3.7,0 -4.4,3.3 -4.4,6.3"
   id="path413" />
		<path
   clip-path="url(#SVGID_4_)"
   fill="#ffffff"
   d="M 563,421.3 V 404 h 6.5 c 3.1,-0.2 6.3,1.1 6.3,4.5 0,1.9 -1.3,3.2 -3,3.8 v 0 c 2.2,0.5 3.8,2 3.8,4.5 0,3.4 -4.3,4.7 -7,4.5 z m 6.6,-10.4 c 1.6,0 2.4,-0.6 2.4,-2 0,-1.4 -0.9,-2 -2.4,-2 h -2.9 v 4.1 h 2.9 z m 0,7.5 c 1.8,0 3,-0.3 3,-2.3 0,-2 -1.2,-2.3 -3,-2.3 h -2.9 v 4.6 z"
   id="path415" />
		<path
   clip-path="url(#SVGID_4_)"
   fill="#ffffff"
   d="m 589.2,412.6 c 0,-5.1 2.6,-9 8.3,-9 5.7,0 8.3,3.9 8.3,9 0,5.1 -2.6,9 -8.3,9 -5.7,0 -8.3,-3.9 -8.3,-9 m 4,0 c 0,3 0.7,6.3 4.4,6.3 3.7,0 4.4,-3.4 4.4,-6.3 0,-3 -0.7,-6.3 -4.4,-6.3 -3.7,0 -4.4,3.3 -4.4,6.3"
   id="path417" />
		<polygon
   clip-path="url(#SVGID_4_)"
   fill="#ffffff"
   points="617.8,404 631.9,404 631.9,406.8 626.7,406.8 626.7,421.3 623,421.3 623,406.8 617.8,406.8 "
   id="polygon419" />
		<rect
   x="644.70001"
   y="404"
   clip-path="url(#SVGID_4_)"
   fill="#ffffff"
   width="3.7"
   height="17.299999"
   id="rect421" />
		<path
   clip-path="url(#SVGID_4_)"
   fill="#ffffff"
   d="m 672.5,409.6 c 0,-1.8 -1.1,-3.3 -3.3,-3.3 -2.6,0 -3.3,3.9 -3.3,6.3 0,2.4 0.7,6.3 3.3,6.3 2.2,0 3.3,-1.5 3.3,-3.3 h 4 c -0.2,4.3 -3.3,6 -7.3,6 -5,0 -7.3,-4 -7.3,-9 0,-5.1 2.3,-9 7.3,-9 4,0 7.1,1.6 7.3,6 z"
   id="path423" />
		<path
   clip-path="url(#SVGID_4_)"
   fill="#ffffff"
   d="m 699.2,408.9 c -0.1,-1.8 -1.1,-2.6 -2.9,-2.6 -1.4,0 -2.8,0.7 -2.8,2.2 0,1.9 1.7,2.1 3.2,2.4 2.6,0.7 6.5,1.4 6.5,4.9 0,4.3 -3.7,5.8 -7.5,5.8 -4,0 -6.8,-1.5 -6.6,-5.9 h 3.8 c -0.1,1.9 1,3.2 2.9,3.2 1.5,0 3.5,-0.5 3.5,-2.3 0,-2 -2.5,-2.2 -4,-2.6 -2.4,-0.6 -5.7,-1.7 -5.7,-4.8 0,-4 3.6,-5.7 7.2,-5.7 3.4,0 6,1.8 6,5.3 h -3.6 z"
   id="path425" />
		<path
   clip-path="url(#SVGID_4_)"
   fill="#fdc631"
   d="m 595.8,277.5 0.9,-10.6 -17.1,-5 c -0.1,-3.3 -0.4,-6.7 -0.9,-10 l 15.9,-8 -2.8,-10.2 -17.8,1.2 c -0.4,-1 -0.8,-2 -1.3,-3.1 -0.9,-2.1 -2,-4.1 -3,-6 l 12.2,-13 -6.1,-8.6 -16.3,7.3 c -2.3,-2.5 -4.7,-4.9 -7.2,-7.1 l 7,-16.4 -8.7,-6 -12.8,12.4 c -3,-1.6 -6,-3 -9.2,-4.2 l 0.9,-17.8 -10.3,-2.6 -7.8,16.1 c -3.3,-0.5 -6.7,-0.7 -10,-0.8 L 496,168 l -10.5,1.1 -1.8,17.8 c -2.5,0.5 -5,1.2 -7.5,2 l -10.4,-14.5 -9.7,4.3 3.9,17.3 c -2.9,1.7 -5.7,3.6 -8.3,5.7 l -14.7,-10.1 -7.6,7.4 9.7,15 c -2.1,2.6 -4.1,5.3 -5.9,8.2 l -17.3,-4.4 -4.6,9.5 14.3,10.8 c -1.1,3.2 -2,6.4 -2.7,9.7 l -17.8,1.8 -1,10.5 17.1,5.2 c 0,3.3 0.3,6.7 0.8,10 l -16.1,7.8 2.7,10.3 17.8,-1 c 0.5,1.4 1.1,2.8 1.7,4.1 0.8,1.7 1.6,3.4 2.5,5 l -12.4,12.9 6,8.7 16.4,-7 c 0,0 0,0 0,0 v 0 c 0,0 7.4,2.9 15.3,2.9 7.9,0 8.4,-2.2 8.4,-4.1 -1.3,0.3 -2.9,0.2 -2.9,0.2 0,0 10.6,-12 11.6,-21.7 1.2,9.3 -4,16.2 -6.1,18.6 4.1,0 9.6,-1.9 14.9,-3.9 5.3,-2 10,-4.8 15.7,-4.8 7.9,0 12,4.7 18.2,4.7 1.5,0 2.6,-0.7 2.6,-0.7 -1.7,-2.6 -3.1,-8 -3.8,-12.6 -0.7,-4.7 0.6,-10.3 0.6,-10.3 0,0 -1,0.6 -2.8,0.6 -2,0 -7.2,-1 -10.7,-4.6 2.9,-5.2 4.6,-13.2 4.6,-13.2 0,0 3.6,1 8.1,1 9.4,0 15.5,-2.4 15.5,-2.4 0,0 2.8,8.7 3.6,13.2 0.7,4.5 2.6,13.5 3.1,14.3 -2.5,1.1 -6,1.1 -6,1.1 0,0 0,14.5 -0.4,17 -0.4,2.5 -0.2,4.7 -2.8,4.7 -2.6,0 -5.4,-0.4 -7.2,-0.4 -1.8,0 -6.3,0.7 -7.1,1.1 -0.8,0.4 -1.8,5.3 -1.8,5.3 h 6.1 c 7.8,0 15.1,5.8 15.1,5.8 0,0 -14,5.2 -15.3,7.6 -1.4,-3 -14.1,-8.4 -17.5,-7.9 0.4,-4.7 -1.9,-16.9 -11,-16.9 -5.9,0 -9.6,5.6 -9.6,5.6 0,0 9.4,3.7 15.1,9.8 5.6,6.1 8.5,10.7 9,13.3 -8.7,-8.2 -16.3,-10.1 -32.2,-10.5 -15.1,-0.4 -16.7,1.6 -21,1.6 -2,0 -3.9,0 -5.4,0.1 l -3.9,8.8 8.6,6.1 13,-12.2 c 2.9,1.6 6,3 9.1,4.3 l -1.2,17.8 10.2,2.8 8,-16 c 3.3,0.5 6.7,0.8 10,0.9 l 5,17.1 10.6,-0.9 2,-17.7 c 3.3,-0.7 6.5,-1.5 9.7,-2.6 l 10.6,14.4 9.6,-4.5 -4.2,-17.4 c 2.9,-1.8 5.7,-3.7 8.3,-5.8 l 14.9,9.8 7.5,-7.5 -9.9,-14.9 c 2.1,-2.6 4,-5.4 5.8,-8.3 l 17.4,4.1 4.4,-9.6 -14.4,-10.6 c 1.1,-3.2 1.9,-6.4 2.6,-9.7 z m -84.9,-17.1 c -3.7,-0.2 -6.7,-1.4 -6.7,-1.4 0,0 -5.2,3.7 -9.3,6.2 -8.1,-0.6 -15.3,3.9 -15.3,3.9 0,0 1.6,-3.1 7.2,-4.5 5.9,-1.5 7.2,-2.4 10.5,-5 3.3,-2.6 6,-5.9 6,-5.9 0,0 3,2.2 8.1,2.2 12.1,0 17.8,-4.5 17.8,-4.5 l 2.1,3.4 c 0,0 -7,6.9 -20.4,5.6 m 19.9,-20.3 c 0,0 -2,-0.9 -5,6 l 1.7,-5.9 c 0,0 -7.5,-4.5 -22.9,-4.5 -23.4,0 -32.5,10.7 -36.2,19.2 -2.8,6.4 -2.2,17.3 -1.7,27.6 0.6,10.3 -5.6,26.5 -15.9,29.8 1.4,-2.7 2.4,-11.6 0.5,-19.5 1,-0.5 1.9,-1.1 2.8,-1.7 1.5,-1.1 3.1,-2.2 4.1,-3.8 l -0.1,-0.1 c -1.2,1.4 -2.8,2.3 -4.4,3.1 -0.9,0.4 -1.8,0.8 -2.7,1.2 -0.7,-2.4 -1.6,-4.7 -3,-6.6 -1.4,-2 -2.7,-4 -3.9,-6.3 1.4,-0.4 2.8,-0.8 4.2,-1.4 1.7,-0.7 3.5,-1.5 4.8,-2.8 l -0.1,-0.1 c -1.5,1.1 -3.3,1.6 -5,2.1 -1.5,0.4 -3,0.6 -4.5,0.9 -1.6,-3.6 -2.9,-8.1 -3.5,-14.9 0.3,0 0.5,0.1 0.8,0.1 1.9,0.1 3.7,0.1 5.6,0 1.9,-0.2 3.8,-0.4 5.5,-1.2 l -0.1,-0.1 c -1.7,0.6 -3.6,0.6 -5.4,0.5 -1.8,-0.1 -3.6,-0.4 -5.4,-0.7 -0.4,-0.1 -0.7,-0.2 -1.1,-0.2 -0.2,-2.5 -0.3,-5.3 -0.3,-8.5 0,-3.2 0.5,-6.7 1.5,-10.2 1.1,0.8 2.2,1.5 3.3,2.2 1.6,1 3.2,1.9 5,2.6 1.7,0.7 3.5,1.4 5.4,1.5 v -0.2 c -1.8,-0.3 -3.4,-1.2 -5,-2.1 -1.6,-0.9 -3,-2 -4.5,-3.1 -1.2,-1 -2.4,-2 -3.6,-3.1 1.7,-5 4.3,-10.2 7.8,-15 0.9,1.2 1.8,2.4 2.8,3.6 1.2,1.4 2.5,2.8 3.9,4.1 1.4,1.2 2.9,2.5 4.6,3.1 v -0.2 c -1.6,-0.8 -2.9,-2.2 -4.1,-3.6 -1.2,-1.4 -2.2,-2.9 -3.2,-4.4 -0.9,-1.5 -1.8,-3 -2.6,-4.5 3.7,-4.8 8.4,-9.2 13.8,-12.9 0.3,0.7 0.5,1.5 0.8,2.2 0.7,1.8 1.4,3.5 2.2,5.2 0.8,1.7 1.7,3.3 2.7,4.9 1,1.5 2.1,3.1 3.7,4.2 l 0.1,-0.1 c -1.3,-1.2 -2.2,-2.9 -3,-4.5 -0.8,-1.6 -1.4,-3.3 -2,-5.1 -0.6,-1.7 -1,-3.5 -1.5,-5.3 -0.2,-1 -0.5,-2 -0.7,-3 5,-3 10.6,-5.4 16.8,-6.9 0.1,0.6 0.1,1.1 0.2,1.7 0.3,1.9 0.6,3.7 1,5.5 0.4,1.8 0.9,3.6 1.5,5.4 0.7,1.7 1.4,3.5 2.7,4.9 l 0.1,-0.1 c -1,-1.5 -1.5,-3.3 -2,-5.1 -0.4,-1.8 -0.7,-3.6 -0.8,-5.4 -0.2,-1.8 -0.2,-3.6 -0.3,-5.5 0,-0.7 0,-1.4 0,-2.1 3.2,-0.6 6.5,-1 10,-1.2 3.9,-0.2 7.6,0 11.1,0.4 -0.2,0.6 -0.3,1.2 -0.4,1.8 -0.4,1.8 -0.8,3.7 -1,5.5 -0.3,1.9 -0.4,3.7 -0.5,5.6 0,1.9 0.1,3.8 0.8,5.5 l 0.1,-0.1 c -0.5,-1.8 -0.3,-3.6 -0.1,-5.4 0.2,-1.8 0.6,-3.6 1.1,-5.3 0.5,-1.8 1.1,-3.5 1.7,-5.2 0.3,-0.7 0.5,-1.4 0.8,-2.1 6.8,1 12.8,2.8 17.9,4.9 -0.4,0.7 -0.7,1.3 -1.1,2 -0.9,1.7 -1.7,3.3 -2.4,5.1 -0.7,1.7 -1.4,3.5 -1.9,5.3 -0.5,1.8 -0.9,3.7 -0.7,5.6 h 0.2 c 0,-1.8 0.7,-3.6 1.3,-5.3 0.7,-1.7 1.5,-3.3 2.4,-4.9 0.9,-1.6 1.9,-3.1 2.9,-4.6 0.5,-0.7 1,-1.4 1.5,-2.1 14.3,6.7 21.6,15.9 21.6,15.9 z"
   id="path427" />
		<path
   clip-path="url(#SVGID_4_)"
   fill="#fdc631"
   d="m 522.8,273.6 c -3.1,-0.2 -6.2,1.7 -6.2,1.7 2.8,1.1 4.2,3.7 4.2,3.7 0,0 1,-0.5 2.9,-0.2 1.7,0.3 2.8,1.3 2.8,1.3 -0.1,-2.4 0.6,-4.4 0.6,-4.4 0,0 -1.2,-2 -4.3,-2.1"
   id="path429" />
		<path
   clip-path="url(#SVGID_4_)"
   fill="#fdc631"
   d="m 310.7,295.9 v -9 l -17,-1.6 c -0.4,-2.5 -1.1,-5 -2,-7.3 l 13.9,-9.9 -4.5,-7.8 -15.5,7.1 c -1.6,-1.9 -3.4,-3.7 -5.4,-5.4 l 7.1,-15.6 -7.8,-4.5 -9.9,14 c -2.2,-0.8 -4.4,-1.4 -6.7,-1.8 l -1.4,-17 -9,-0.1 -1.8,17 c -2.5,0.4 -5,1 -7.3,1.9 l -9.7,-14.1 -7.8,4.4 6.9,15.6 c -2,1.6 -3.8,3.3 -5.4,5.3 l -15.5,-7.3 -4.6,7.7 13.8,10.1 c -0.9,2.4 -1.6,4.8 -2,7.3 l -17,1.5 -0.1,9 17,1.8 c 0.4,2.5 1,5 1.9,7.3 l -14,9.8 4.4,7.8 15.6,-7 c 1.6,2 3.3,3.8 5.3,5.4 l -7.2,15.5 7.8,4.5 10,-13.9 c 2.4,0.9 4.9,1.6 7.3,2 l 1.5,17 h 9 l 1.7,-17 c 2.5,-0.4 5,-1 7.3,-1.9 l 9.9,14 7.8,-4.5 -7.1,-15.6 c 1.9,-1.6 3.7,-3.4 5.4,-5.4 l 15.5,7.2 4.5,-7.8 -13.9,-9.9 c 0.9,-2.4 1.6,-4.9 2,-7.3 z m -37.2,-16.2 -16.5,35 h -11.6 l 16.9,-35 h -23.7 v -8.9 h 34.9 z"
   id="path431" />
		<path
   clip-path="url(#SVGID_4_)"
   fill="#fdc631"
   d="m 744.9,291.7 c -4.1,0 -6.8,2.6 -6.8,7.3 0,4.8 2.7,7.3 6.8,7.3 4.1,0 6.8,-2.6 6.8,-7.3 0,-4.7 -2.7,-7.3 -6.8,-7.3"
   id="path433" />
		<path
   clip-path="url(#SVGID_4_)"
   fill="#fdc631"
   d="m 782,287.9 16.1,-5.9 -2.3,-8.7 -16.8,2.7 c -1,-2.3 -2.3,-4.5 -3.8,-6.6 l 11,-13.1 -6.3,-6.4 -13.2,10.8 c -2.1,-1.5 -4.3,-2.8 -6.5,-3.8 l 2.9,-16.9 -8.7,-2.4 -6,16 c -2.5,-0.3 -5.1,-0.3 -7.6,0 l -5.9,-16.1 -8.7,2.3 2.8,16.9 c -2.1,0.9 -4.1,2.1 -6,3.4 l -13,-11.1 -6.5,6.2 10.7,13.4 c -1.5,2.1 -2.8,4.2 -3.9,6.5 l -16.8,-3.1 -2.5,8.6 15.9,6.2 c -0.3,2.5 -0.3,5.1 -0.1,7.6 l -16.1,5.7 2.2,8.7 16.9,-2.6 c 1,2.3 2.2,4.5 3.7,6.6 l -11.1,13 6.3,6.5 13.3,-10.7 c 2.1,1.5 4.2,2.8 6.5,3.9 l -3.1,16.8 8.7,2.4 6.2,-16 c 2.5,0.3 5.1,0.3 7.6,0.1 l 5.8,16.1 8.7,-2.2 -2.7,-16.9 c 2.3,-1 4.5,-2.2 6.6,-3.7 l 13.1,11 6.4,-6.3 -10.8,-13.3 c 1.5,-2.1 2.8,-4.3 3.9,-6.5 l 16.8,3 2.4,-8.7 -16,-6.1 c 0.2,-2.3 0.2,-4.8 -0.1,-7.3 m -37.3,26.7 c -13.4,0 -19.4,-10.1 -19.4,-22.4 0,-12.5 5.3,-23.3 19.8,-23.3 8,0 15.5,3 15.8,11.7 h -11.6 c -0.1,-1.1 -0.7,-2 -1.6,-2.5 -0.9,-0.6 -2.2,-0.9 -3.5,-0.9 -6.8,0 -6.3,7.5 -6.5,12.3 l 0.1,0.1 c 2.1,-3.9 6.1,-5.4 10.8,-5.4 8.7,0 14.8,5.5 14.8,14.5 0,10.6 -8.8,15.9 -18.7,15.9"
   id="path435" />
		<path
   clip-path="url(#SVGID_4_)"
   fill="#fdc631"
   d="m 416.8,337.2 2.4,-9.5 -17.6,-6.2 c 0.2,-2.8 0.2,-5.6 -0.1,-8.3 l 17.4,-6.8 -2.7,-9.4 -18.3,3.4 c -1.2,-2.5 -2.6,-4.9 -4.3,-7.1 l 11.6,-14.6 -7.1,-6.8 -14.1,12.2 c -2.2,-1.6 -4.7,-2.9 -7.2,-4 l 2.7,-18.4 -9.5,-2.4 -6.2,17.6 c -2.8,-0.2 -5.6,-0.2 -8.3,0.2 l -6.9,-17.3 -9.4,2.7 3.5,18.3 c -2.5,1.2 -4.9,2.6 -7.1,4.3 l -14.6,-11.6 -6.8,7.1 12.2,14.1 c -1.5,2.3 -2.9,4.7 -4,7.3 l -18.5,-2.7 -2.3,9.5 17.6,6.1 c -0.2,2.8 -0.1,5.6 0.2,8.3 l -17.3,6.9 2.8,9.4 18.3,-3.6 c 1.2,2.5 2.6,4.9 4.3,7.1 l -11.5,14.7 7.1,6.7 14,-12.3 c 2.3,1.5 4.7,2.9 7.3,3.9 l -2.6,18.5 9.5,2.3 6,-17.7 c 2.6,0.2 5.1,0.1 7.6,-0.1 l 6.7,17.4 9.4,-2.7 -3.3,-18.4 c 2.5,-1.2 4.9,-2.6 7.1,-4.2 l 14.5,11.7 6.8,-7 -12.1,-14.2 c 1.6,-2.2 2.9,-4.7 4,-7.2 z m -39.3,1.6 h -35.9 v -8.2 c 5.5,-5.5 23.4,-16.3 23.4,-23.9 0,-3.1 -2.1,-4.4 -5.4,-4.4 -2.9,0 -4.7,2.4 -4.8,4.8 h -12.4 c 0.4,-9.9 9,-13 18.2,-13 8,0 16.7,2.9 16.7,11.9 0,10.1 -20.7,24.4 -20.8,24.5 v 0.1 h 20.9 v 8.2 z"
   id="path437" />
		<path
   clip-path="url(#SVGID_4_)"
   fill="#fdc631"
   d="m 699.4,323.5 0.1,-9.8 -18.5,-1.9 c -0.4,-2.7 -1.1,-5.4 -2.1,-8 l 15.3,-10.7 -4.8,-8.5 -17,7.6 c -1.8,-2.2 -3.7,-4.2 -5.8,-5.9 l 7.9,-16.9 -8.5,-5 -11,15.1 c -2.6,-1 -5.2,-1.7 -8,-2.2 l -1.6,-18.6 -9.8,-0.1 -1.9,18.5 c -2.7,0.4 -5.4,1.1 -8,2.1 l -10.7,-15.1 -8.5,4.9 7.7,17 c -2.2,1.8 -4.1,3.7 -5.9,5.8 l -16.9,-7.8 -4.9,8.5 15.2,10.9 c -1,2.6 -1.7,5.3 -2.2,8 l -18.6,1.7 v 9.8 l 18.5,1.8 c 0.4,2.7 1.1,5.4 2.1,8 l -15.2,10.8 4.9,8.5 17,-7.8 c 1.8,2.2 3.7,4.1 5.8,5.8 l -7.7,17 8.5,4.9 10.8,-15.2 c 2.6,1 5.3,1.7 8,2.1 l 1.8,18.6 h 9.8 l 1.7,-18.6 c 2.5,-0.4 4.9,-1.1 7.3,-1.9 l 10.6,15.3 8.6,-4.8 -7.5,-17.1 c 2.2,-1.7 4.2,-3.7 5.9,-5.8 l 16.9,8 5,-8.4 -15.1,-11 c 1,-2.6 1.7,-5.2 2.2,-8 z m -42.2,15.3 h -35.9 v -8.2 c 5.5,-5.5 23.4,-16.3 23.4,-23.9 0,-3.1 -2.1,-4.4 -5.4,-4.4 -2.8,0 -4.7,2.4 -4.8,4.8 h -12.3 c 0.4,-9.9 9,-13 18.2,-13 8,0 16.7,2.9 16.7,11.9 0,10.1 -20.7,24.4 -20.8,24.5 v 0.1 h 20.9 z"
   id="path439" />
		<path
   clip-path="url(#SVGID_4_)"
   fill="#ffffff"
   d="m 487.8,143.7 c 0.9,4.4 -1.4,6.9 -4.7,7.9 -3.9,1.1 -7.9,1.9 -11.9,2.8 -1.6,0.3 -3.2,0.6 -4.8,0.7 -2.8,0.1 -5.1,-1.2 -5.9,-3.9 -1.1,-3.8 -1.9,-7.8 -2.5,-11.7 -0.4,-3 1.2,-5.2 4,-6.1 3.6,-1.1 7.3,-1.9 11,-2.8 2.1,-0.5 4.3,-0.8 6.5,-0.9 2.7,-0.1 4.9,1.2 5.7,3.8 1.2,3.8 2,7.7 2.6,10.2 m -5.1,0.9 c -0.6,-2.6 -1.1,-5.3 -1.8,-7.9 -0.6,-2 -1.6,-2.7 -3.6,-2.3 -3.9,0.8 -7.9,1.7 -11.8,2.6 -1.7,0.4 -2.6,1.6 -2.2,3.3 0.5,2.6 1,5.2 1.7,7.7 0.4,1.7 1.7,2.4 3.4,2.1 4,-0.8 8.1,-1.7 12.1,-2.7 1.4,-0.2 2.2,-1.2 2.2,-2.8"
   id="path441" />
		<path
   clip-path="url(#SVGID_4_)"
   fill="#ffffff"
   d="m 418.9,172.6 c 2.9,0.4 6.6,0.9 9.4,1.3 0.2,0 0.4,0.3 0.3,0.5 -1,1.2 -2.1,2.2 -2.7,2.8 -1.1,1.1 -1.5,0.9 -2.3,0.8 -1,-0.2 -3.4,-0.6 -4.7,-0.8 -2.6,-0.3 -3.2,-0.5 -4.7,0.7 -1.6,1.7 -6.3,6.3 -6.3,6.3 1,1.1 2.3,2.5 3.6,3.9 0.8,0.8 0.7,1.4 -0.1,2.1 -3,2.7 -2.2,2.9 -4.9,0 -4.1,-4.3 -8.2,-8.7 -12.3,-13 -0.9,-0.9 -1,-1.5 0,-2.4 4.2,-4 8.4,-8 12.6,-11.9 2.7,-2.5 6.8,-2.3 9.4,0.3 0.4,0.4 0.8,0.7 1.1,1.1 2.8,2.8 3.2,4.6 1.6,8.3 m -19,3.2 5,5 c 2.9,-2.7 6.2,-5.9 9.3,-8.8 1.1,-1.1 1.1,-2.3 0,-3.5 -0.5,-0.6 -1,-1.1 -1.6,-1.6 -0.9,-0.9 -2,-1 -3,-0.2 -3.2,2.9 -6.4,5.9 -9.7,9.1"
   id="path443" />
		<path
   clip-path="url(#SVGID_4_)"
   fill="#ffffff"
   d="m 383,206.9 c 2.8,-4.5 5.5,-9 8.3,-13.4 1.8,-2.9 2.3,-3.2 4.7,-1 0.3,0.3 0.4,0.8 0.2,1.2 -3.1,5.1 -6.5,10.2 -9.6,15.2 2.3,2.3 4.2,2.2 5.9,-0.4 2.5,-3.8 4.8,-7.7 7.1,-11.6 0.8,-1.3 1.5,-1.6 2.8,-0.7 2.4,1.6 2.3,1.5 0.9,3.7 -2.2,3.6 -4.4,7.1 -6.6,10.7 -0.5,0.9 -1.1,1.7 -1.8,2.5 -2.4,2.8 -5.1,3.5 -8.3,1.8 -3,-1.6 -6,-3.4 -8.8,-5.4 -2.8,-2 -3.6,-4.9 -2.1,-8.1 1.3,-2.7 3,-5.3 4.5,-7.9 1.3,-2.2 2.7,-4.3 3.9,-6.5 0.7,-1.1 1.1,-1.4 2,-0.8 0.4,0.2 1.5,0.9 1.9,1.1 1.1,0.7 0.8,1.2 0.2,2.2 -2.4,3.8 -4.8,7.6 -7.1,11.4 -1.6,3 -1.2,4.3 1.9,6"
   id="path445" />
		<path
   clip-path="url(#SVGID_4_)"
   fill="#ffffff"
   d="m 594.3,184.1 c -2.2,2.5 -6,2.8 -8.6,0.7 -2,-1.6 -6.8,-5.9 -10.3,-8.9 -2.2,-1.9 -2.5,-5.3 -0.7,-7.6 1.4,-1.8 5,-6.1 7.6,-9.2 1.6,-1.9 4.5,-2.2 6.5,-0.6 4,3.1 10.1,8 12,10 2.3,2.3 2.3,4.6 0.3,7.1 -1.3,1.6 -4.3,5.6 -6.8,8.5 m 2.3,-10.2 c 0.9,-1.1 0.8,-2.8 -0.3,-3.8 -2.4,-2.1 -6.2,-5.4 -7.9,-6.8 -1.6,-1.3 -2.9,-1.2 -4.4,0.3 -1.7,1.8 -3.4,3.7 -5,5.7 -1.4,1.7 -1.3,3 0.4,4.5 2.3,2.1 5,4.4 7.4,6.4 1.8,1.5 3,1.4 4.7,-0.3 1,-1.1 3.5,-4 5.1,-6"
   id="path447" />
		<path
   clip-path="url(#SVGID_4_)"
   fill="#ffffff"
   d="m 615,208.8 c 1.5,3.1 1.7,2.9 -0.3,4.2 -1.2,0.7 -1.4,0.9 -3.6,-1.6 -0.3,0.2 -2.2,1.4 -3.2,2.1 -0.4,0.2 -0.9,0.1 -1.1,-0.2 l -1.9,-3 c -0.2,-0.3 -0.1,-0.8 0.2,-1 l 3.3,-2.2 c -3,-4.6 -6,-9 -8.9,-13.5 -1.5,-2.2 -1.2,-2.8 0.8,-4.3 2.6,-2 4.5,-0.6 8.3,0.8 4,1.5 7.2,3 11.3,4.4 2.9,1 4.2,2.9 5.3,5.1 0.7,1.3 -0.1,2.4 -1.3,3.2 -2.6,1.7 -5.2,3.4 -7.7,5.1 -0.3,0.2 -0.7,0.6 -1.2,0.9 m 4.9,-9.2 c 0.2,-0.1 0.1,-0.4 0,-0.5 -2.4,-1 -13.3,-5.6 -15.3,-6.4 -0.2,-0.1 -0.3,0.1 -0.2,0.3 1.1,1.7 5.1,7.6 7.3,11 0.2,0.3 0.7,0.4 1.1,0.2 2.3,-1.5 5.9,-3.8 7.1,-4.6"
   id="path449" />
		<path
   clip-path="url(#SVGID_4_)"
   fill="#ffffff"
   d="m 448,154.3 c 2.7,1.2 6.3,2.8 8.9,3.9 0.2,0.1 0.3,0.4 0.1,0.5 -0.9,0.6 -2.5,1.4 -3.1,1.7 -1.5,0.8 -1.9,0.7 -2.8,0.3 -0.9,-0.4 -3.1,-1.4 -4.3,-1.9 -2.4,-1 -3,-1.4 -4.7,-0.6 -2,1.3 -7.7,4.4 -7.7,4.4 0.7,1.3 1.5,3 2.5,4.7 0.6,1 0.3,1.5 -0.7,2 -3.6,1.8 -2.9,2.3 -4.7,-1.2 -2.8,-5.3 -5.6,-10.5 -8.5,-15.8 -0.6,-1.1 -0.6,-1.7 0.6,-2.3 5.1,-2.7 10.2,-5.5 15.3,-8.2 3.2,-1.7 7.2,-0.5 9,2.7 0.3,0.5 0.5,0.9 0.8,1.4 2,3.5 1.8,5.3 -0.7,8.4 m -19.1,-1.9 3.6,6.1 c 3.5,-1.9 7.5,-4.1 11.2,-6.1 1.4,-0.8 1.7,-2 1,-3.4 -0.3,-0.7 -0.7,-1.3 -1.1,-2 -0.7,-1.1 -1.7,-1.5 -2.8,-0.9 -4,2 -7.8,4.1 -11.9,6.3"
   id="path451" />
		<path
   clip-path="url(#SVGID_4_)"
   fill="#ffffff"
   d="m 517.6,143.8 c 1.7,2.4 3.7,5.2 5.4,7.6 0.1,0.2 0,0.5 -0.2,0.5 -2.1,-0.1 -4,-0.3 -4.9,-0.4 -0.8,-0.1 -0.9,-0.5 -1.2,-1 -0.6,-0.9 -1.6,-2.5 -2.4,-3.5 -1.5,-2.1 -1.8,-2.7 -3.7,-2.9 -2.4,0 -8.9,-0.2 -8.9,-0.2 -0.1,1.5 -0.3,3.4 -0.3,5.3 0,1.2 -0.5,1.5 -1.6,1.4 -4,-0.3 -3.6,0.4 -3.4,-3.5 0.3,-6 0.7,-11.9 1,-17.9 0.1,-1.2 0.4,-1.8 1.7,-1.7 5.8,0.4 11.6,0.6 17.3,1 3.6,0.3 6.4,3.4 6.3,7 0,0.5 0,1.1 0,1.6 -0.2,3.9 -1.3,5.3 -5.1,6.7 m -15.3,-11.6 -0.2,7.1 c 4,0.2 8.6,0.5 12.8,0.6 1.6,0.1 2.4,-0.8 2.6,-2.4 0.1,-0.7 0.1,-1.5 0.1,-2.2 0,-1.3 -0.7,-2.2 -1.9,-2.3 -4.4,-0.3 -8.8,-0.5 -13.4,-0.8"
   id="path453" />
		<path
   clip-path="url(#SVGID_4_)"
   fill="#ffffff"
   d="m 566.7,159 c 2.8,1.9 3,1.7 1.9,3.7 -0.6,1.2 -0.8,1.5 -3.9,0.4 -0.2,0.3 -1.1,2.3 -1.7,3.4 -0.2,0.4 -0.7,0.6 -1.1,0.4 l -3.2,-1.6 c -0.4,-0.2 -0.5,-0.6 -0.3,-1 l 1.7,-3.6 c -4.9,-2.4 -9.7,-4.7 -14.5,-7.1 -2.4,-1.2 -2.5,-1.8 -1.5,-4.2 1.2,-3 3.5,-2.8 7.5,-3.5 4.2,-0.8 7.8,-1 11.9,-2 3,-0.7 5.1,0.3 7.2,1.7 1.3,0.8 1.2,2.1 0.5,3.4 -1.4,2.8 -2.7,5.6 -4.1,8.4 0,0.6 -0.2,1.1 -0.4,1.6 m -0.5,-10.4 c 0.1,-0.2 -0.1,-0.4 -0.3,-0.4 -2.5,0.3 -14.3,1.9 -16.4,2.2 -0.2,0 -0.2,0.3 -0.1,0.3 1.9,0.9 8.2,4 11.9,5.8 0.4,0.2 0.8,0 1,-0.3 1.3,-2.5 3.2,-6.3 3.9,-7.6"
   id="path455" />
		<polygon
   clip-path="url(#SVGID_4_)"
   fill="#ffffff"
   points="308.6,408.1 308.5,408.1 305.2,421.3 301,421.3 296.7,404 300.6,404 303.2,417 303.3,417 306.6,404 310.8,404 313.9,417 316.7,404 320.3,404 315.8,421.3 311.7,421.3 "
   id="polygon457" />
		<path
   clip-path="url(#SVGID_4_)"
   fill="#ffffff"
   d="M 330.7,421.3 337,404 h 4.4 l 6,17.3 h -3.7 l -1.2,-3.7 h -6.9 l -1.3,3.7 z m 10.8,-6.6 -2.4,-7.4 v 0 l -2.5,7.4 z"
   id="path459" />
		<polygon
   clip-path="url(#SVGID_4_)"
   fill="#ffffff"
   points="357.4,404 361.4,404 365.9,417.6 366,417.6 370.5,404 374.2,404 367.8,421.3 363.7,421.3 "
   id="polygon461" />
		<polygon
   clip-path="url(#SVGID_4_)"
   fill="#ffffff"
   points="390.7,418.4 398.8,418.4 398.8,421.3 387,421.3 387,404 398.6,404 398.6,406.8 390.7,406.8 390.7,410.9 398.1,410.9 398.1,413.8 390.7,413.8 "
   id="polygon463" />
	</g>
	<g
   id="Logo_2_"
   display="inline">
		<defs
   id="defs467">
			<rect
   id="SVGID_5_"
   x="104"
   y="-6"
   width="792"
   height="612" />
		</defs>
		<clipPath
   id="SVGID_6_">
			<use
   xlink:href="#SVGID_5_"
   overflow="visible"
   id="use469"
   x="0"
   y="0"
   width="100%"
   height="100%" />
		</clipPath>
		<path
   clip-path="url(#SVGID_6_)"
   fill="#ffffff"
   d="m 416.3,421.3 h -3.7 V 404 h 7.4 c 3,0 6,1 6,4.5 0,2.3 -1.5,3.7 -3.6,4.2 v 0 c 2.9,0.3 2.9,2.1 3.2,4.5 0.2,1.1 0.3,3.1 1,4.1 h -4.1 c -0.3,-1.5 -0.5,-3.1 -0.6,-4.7 -0.1,-1 -0.3,-2.3 -1.6,-2.3 h -3.9 v 7 z m 0,-9.9 h 3.1 c 1.6,0 2.6,-0.8 2.6,-2.4 0,-1.5 -1,-2.2 -2.6,-2.2 h -3.1 z"
   id="path472" />
		<polygon
   clip-path="url(#SVGID_6_)"
   fill="#ffffff"
   points="443.6,404 443.6,418.4 451.1,418.4 451.1,421.3 439.9,421.3 439.9,404 "
   id="polygon474" />
		<polygon
   clip-path="url(#SVGID_6_)"
   fill="#ffffff"
   points="466.3,421.3 466.3,415.6 460.4,404 464.8,404 468.3,411.9 472,404 475.8,404 470,415.6 470,421.3 "
   id="polygon476" />
		<path
   clip-path="url(#SVGID_6_)"
   fill="#ffffff"
   d="m 510,421.3 h -3.7 V 404 h 7.4 c 3,0 6,1 6,4.5 0,2.3 -1.5,3.7 -3.6,4.2 v 0 c 2.9,0.3 2.9,2.1 3.2,4.5 0.2,1.1 0.3,3.1 1,4.1 h -4.1 c -0.3,-1.5 -0.5,-3.1 -0.6,-4.7 -0.1,-1 -0.3,-2.3 -1.6,-2.3 h -4 z m 0,-9.9 h 3.1 c 1.6,0 2.6,-0.8 2.6,-2.4 0,-1.5 -1,-2.2 -2.6,-2.2 H 510 Z"
   id="path478" />
		<path
   clip-path="url(#SVGID_6_)"
   fill="#ffffff"
   d="m 532.7,412.6 c 0,-5.1 2.6,-9 8.3,-9 5.7,0 8.3,3.9 8.3,9 0,5.1 -2.6,9 -8.3,9 -5.7,0 -8.3,-3.9 -8.3,-9 m 4,0 c 0,3 0.7,6.3 4.4,6.3 3.7,0 4.4,-3.4 4.4,-6.3 0,-3 -0.7,-6.3 -4.4,-6.3 -3.7,0 -4.4,3.3 -4.4,6.3"
   id="path480" />
		<path
   clip-path="url(#SVGID_6_)"
   fill="#ffffff"
   d="M 563,421.3 V 404 h 6.5 c 3.1,-0.2 6.3,1.1 6.3,4.5 0,1.9 -1.3,3.2 -3,3.8 v 0 c 2.2,0.5 3.8,2 3.8,4.5 0,3.4 -4.3,4.7 -7,4.5 z m 6.6,-10.4 c 1.6,0 2.4,-0.6 2.4,-2 0,-1.4 -0.9,-2 -2.4,-2 h -2.9 v 4.1 h 2.9 z m 0,7.5 c 1.8,0 3,-0.3 3,-2.3 0,-2 -1.2,-2.3 -3,-2.3 h -2.9 v 4.6 z"
   id="path482" />
		<path
   clip-path="url(#SVGID_6_)"
   fill="#ffffff"
   d="m 589.2,412.6 c 0,-5.1 2.6,-9 8.3,-9 5.7,0 8.3,3.9 8.3,9 0,5.1 -2.6,9 -8.3,9 -5.7,0 -8.3,-3.9 -8.3,-9 m 4,0 c 0,3 0.7,6.3 4.4,6.3 3.7,0 4.4,-3.4 4.4,-6.3 0,-3 -0.7,-6.3 -4.4,-6.3 -3.7,0 -4.4,3.3 -4.4,6.3"
   id="path484" />
		<polygon
   clip-path="url(#SVGID_6_)"
   fill="#ffffff"
   points="617.8,404 631.9,404 631.9,406.8 626.7,406.8 626.7,421.3 623,421.3 623,406.8 617.8,406.8 "
   id="polygon486" />
		<rect
   x="644.70001"
   y="404"
   clip-path="url(#SVGID_6_)"
   fill="#ffffff"
   width="3.7"
   height="17.299999"
   id="rect488" />
		<path
   clip-path="url(#SVGID_6_)"
   fill="#ffffff"
   d="m 672.5,409.6 c 0,-1.8 -1.1,-3.3 -3.3,-3.3 -2.6,0 -3.3,3.9 -3.3,6.3 0,2.4 0.7,6.3 3.3,6.3 2.2,0 3.3,-1.5 3.3,-3.3 h 4 c -0.2,4.3 -3.3,6 -7.3,6 -5,0 -7.3,-4 -7.3,-9 0,-5.1 2.3,-9 7.3,-9 4,0 7.1,1.6 7.3,6 z"
   id="path490" />
		<path
   clip-path="url(#SVGID_6_)"
   fill="#ffffff"
   d="m 699.2,408.9 c -0.1,-1.8 -1.1,-2.6 -2.9,-2.6 -1.4,0 -2.8,0.7 -2.8,2.2 0,1.9 1.7,2.1 3.2,2.4 2.6,0.7 6.5,1.4 6.5,4.9 0,4.3 -3.7,5.8 -7.5,5.8 -4,0 -6.8,-1.5 -6.6,-5.9 h 3.8 c -0.1,1.9 1,3.2 2.9,3.2 1.5,0 3.5,-0.5 3.5,-2.3 0,-2 -2.5,-2.2 -4,-2.6 -2.4,-0.6 -5.7,-1.7 -5.7,-4.8 0,-4 3.6,-5.7 7.2,-5.7 3.4,0 6,1.8 6,5.3 h -3.6 z"
   id="path492" />
		<path
   clip-path="url(#SVGID_6_)"
   fill="#fdc631"
   d="m 595.8,277.5 0.9,-10.6 -17.1,-5 c -0.1,-3.3 -0.4,-6.7 -0.9,-10 l 15.9,-8 -2.8,-10.2 -17.8,1.2 c -0.4,-1 -0.8,-2 -1.3,-3.1 -0.9,-2.1 -2,-4.1 -3,-6 l 12.2,-13 -6.1,-8.6 -16.3,7.3 c -2.3,-2.5 -4.7,-4.9 -7.2,-7.1 l 7,-16.4 -8.7,-6 -12.8,12.4 c -3,-1.6 -6,-3 -9.2,-4.2 l 0.9,-17.8 -10.3,-2.6 -7.8,16.1 c -3.3,-0.5 -6.7,-0.7 -10,-0.8 L 496,168 l -10.5,1.1 -1.8,17.8 c -2.5,0.5 -5,1.2 -7.5,2 l -10.4,-14.5 -9.7,4.3 3.9,17.3 c -2.9,1.7 -5.7,3.6 -8.3,5.7 l -14.7,-10.1 -7.6,7.4 9.7,15 c -2.1,2.6 -4.1,5.3 -5.9,8.2 l -17.3,-4.4 -4.6,9.5 14.3,10.8 c -1.1,3.2 -2,6.4 -2.7,9.7 l -17.8,1.8 -1,10.5 17.1,5.2 c 0,3.3 0.3,6.7 0.8,10 l -16.1,7.8 2.7,10.3 17.8,-1 c 0.5,1.4 1.1,2.8 1.7,4.1 0.8,1.7 1.6,3.4 2.5,5 l -12.4,12.9 6,8.7 16.4,-7 c 0,0 0,0 0,0 v 0 c 0,0 7.4,2.9 15.3,2.9 7.9,0 8.4,-2.2 8.4,-4.1 -1.3,0.3 -2.9,0.2 -2.9,0.2 0,0 10.6,-12 11.6,-21.7 1.2,9.3 -4,16.2 -6.1,18.6 4.1,0 9.6,-1.9 14.9,-3.9 5.3,-2 10,-4.8 15.7,-4.8 7.9,0 12,4.7 18.2,4.7 1.5,0 2.6,-0.7 2.6,-0.7 -1.7,-2.6 -3.1,-8 -3.8,-12.6 -0.7,-4.7 0.6,-10.3 0.6,-10.3 0,0 -1,0.6 -2.8,0.6 -2,0 -7.2,-1 -10.7,-4.6 2.9,-5.2 4.6,-13.2 4.6,-13.2 0,0 3.6,1 8.1,1 9.4,0 15.5,-2.4 15.5,-2.4 0,0 2.8,8.7 3.6,13.2 0.7,4.5 2.6,13.5 3.1,14.3 -2.5,1.1 -6,1.1 -6,1.1 0,0 0,14.5 -0.4,17 -0.4,2.5 -0.2,4.7 -2.8,4.7 -2.6,0 -5.4,-0.4 -7.2,-0.4 -1.8,0 -6.3,0.7 -7.1,1.1 -0.8,0.4 -1.8,5.3 -1.8,5.3 h 6.1 c 7.8,0 15.1,5.8 15.1,5.8 0,0 -14,5.2 -15.3,7.6 -1.4,-3 -14.1,-8.4 -17.5,-7.9 0.4,-4.7 -1.9,-16.9 -11,-16.9 -5.9,0 -9.6,5.6 -9.6,5.6 0,0 9.4,3.7 15.1,9.8 5.6,6.1 8.5,10.7 9,13.3 -8.7,-8.2 -16.3,-10.1 -32.2,-10.5 -15.1,-0.4 -16.7,1.6 -21,1.6 -2,0 -3.9,0 -5.4,0.1 l -3.9,8.8 8.6,6.1 13,-12.2 c 2.9,1.6 6,3 9.1,4.3 l -1.2,17.8 10.2,2.8 8,-16 c 3.3,0.5 6.7,0.8 10,0.9 l 5,17.1 10.6,-0.9 2,-17.7 c 3.3,-0.7 6.5,-1.5 9.7,-2.6 l 10.6,14.4 9.6,-4.5 -4.2,-17.4 c 2.9,-1.8 5.7,-3.7 8.3,-5.8 l 14.9,9.8 7.5,-7.5 -9.9,-14.9 c 2.1,-2.6 4,-5.4 5.8,-8.3 l 17.4,4.1 4.4,-9.6 -14.4,-10.6 c 1.1,-3.2 1.9,-6.4 2.6,-9.7 z m -84.9,-17.1 c -3.7,-0.2 -6.7,-1.4 -6.7,-1.4 0,0 -5.2,3.7 -9.3,6.2 -8.1,-0.6 -15.3,3.9 -15.3,3.9 0,0 1.6,-3.1 7.2,-4.5 5.9,-1.5 7.2,-2.4 10.5,-5 3.3,-2.6 6,-5.9 6,-5.9 0,0 3,2.2 8.1,2.2 12.1,0 17.8,-4.5 17.8,-4.5 l 2.1,3.4 c 0,0 -7,6.9 -20.4,5.6 m 19.9,-20.3 c 0,0 -2,-0.9 -5,6 l 1.7,-5.9 c 0,0 -7.5,-4.5 -22.9,-4.5 -23.4,0 -32.5,10.7 -36.2,19.2 -2.8,6.4 -2.2,17.3 -1.7,27.6 0.6,10.3 -5.6,26.5 -15.9,29.8 1.4,-2.7 2.4,-11.6 0.5,-19.5 1,-0.5 1.9,-1.1 2.8,-1.7 1.5,-1.1 3.1,-2.2 4.1,-3.8 l -0.1,-0.1 c -1.2,1.4 -2.8,2.3 -4.4,3.1 -0.9,0.4 -1.8,0.8 -2.7,1.2 -0.7,-2.4 -1.6,-4.7 -3,-6.6 -1.4,-2 -2.7,-4 -3.9,-6.3 1.4,-0.4 2.8,-0.8 4.2,-1.4 1.7,-0.7 3.5,-1.5 4.8,-2.8 l -0.1,-0.1 c -1.5,1.1 -3.3,1.6 -5,2.1 -1.5,0.4 -3,0.6 -4.5,0.9 -1.6,-3.6 -2.9,-8.1 -3.5,-14.9 0.3,0 0.5,0.1 0.8,0.1 1.9,0.1 3.7,0.1 5.6,0 1.9,-0.2 3.8,-0.4 5.5,-1.2 l -0.1,-0.1 c -1.7,0.6 -3.6,0.6 -5.4,0.5 -1.8,-0.1 -3.6,-0.4 -5.4,-0.7 -0.4,-0.1 -0.7,-0.2 -1.1,-0.2 -0.2,-2.5 -0.3,-5.3 -0.3,-8.5 0,-3.2 0.5,-6.7 1.5,-10.2 1.1,0.8 2.2,1.5 3.3,2.2 1.6,1 3.2,1.9 5,2.6 1.7,0.7 3.5,1.4 5.4,1.5 v -0.2 c -1.8,-0.3 -3.4,-1.2 -5,-2.1 -1.6,-0.9 -3,-2 -4.5,-3.1 -1.2,-1 -2.4,-2 -3.6,-3.1 1.7,-5 4.3,-10.2 7.8,-15 0.9,1.2 1.8,2.4 2.8,3.6 1.2,1.4 2.5,2.8 3.9,4.1 1.4,1.2 2.9,2.5 4.6,3.1 v -0.2 c -1.6,-0.8 -2.9,-2.2 -4.1,-3.6 -1.2,-1.4 -2.2,-2.9 -3.2,-4.4 -0.9,-1.5 -1.8,-3 -2.6,-4.5 3.7,-4.8 8.4,-9.2 13.8,-12.9 0.3,0.7 0.5,1.5 0.8,2.2 0.7,1.8 1.4,3.5 2.2,5.2 0.8,1.7 1.7,3.3 2.7,4.9 1,1.5 2.1,3.1 3.7,4.2 l 0.1,-0.1 c -1.3,-1.2 -2.2,-2.9 -3,-4.5 -0.8,-1.6 -1.4,-3.3 -2,-5.1 -0.6,-1.7 -1,-3.5 -1.5,-5.3 -0.2,-1 -0.5,-2 -0.7,-3 5,-3 10.6,-5.4 16.8,-6.9 0.1,0.6 0.1,1.1 0.2,1.7 0.3,1.9 0.6,3.7 1,5.5 0.4,1.8 0.9,3.6 1.5,5.4 0.7,1.7 1.4,3.5 2.7,4.9 l 0.1,-0.1 c -1,-1.5 -1.5,-3.3 -2,-5.1 -0.4,-1.8 -0.7,-3.6 -0.8,-5.4 -0.2,-1.8 -0.2,-3.6 -0.3,-5.5 0,-0.7 0,-1.4 0,-2.1 3.2,-0.6 6.5,-1 10,-1.2 3.9,-0.2 7.6,0 11.1,0.4 -0.2,0.6 -0.3,1.2 -0.4,1.8 -0.4,1.8 -0.8,3.7 -1,5.5 -0.3,1.9 -0.4,3.7 -0.5,5.6 0,1.9 0.1,3.8 0.8,5.5 l 0.1,-0.1 c -0.5,-1.8 -0.3,-3.6 -0.1,-5.4 0.2,-1.8 0.6,-3.6 1.1,-5.3 0.5,-1.8 1.1,-3.5 1.7,-5.2 0.3,-0.7 0.5,-1.4 0.8,-2.1 6.8,1 12.8,2.8 17.9,4.9 -0.4,0.7 -0.7,1.3 -1.1,2 -0.9,1.7 -1.7,3.3 -2.4,5.1 -0.7,1.7 -1.4,3.5 -1.9,5.3 -0.5,1.8 -0.9,3.7 -0.7,5.6 h 0.2 c 0,-1.8 0.7,-3.6 1.3,-5.3 0.7,-1.7 1.5,-3.3 2.4,-4.9 0.9,-1.6 1.9,-3.1 2.9,-4.6 0.5,-0.7 1,-1.4 1.5,-2.1 14.3,6.7 21.6,15.9 21.6,15.9 z"
   id="path494" />
		<path
   clip-path="url(#SVGID_6_)"
   fill="#fdc631"
   d="m 522.8,273.6 c -3.1,-0.2 -6.2,1.7 -6.2,1.7 2.8,1.1 4.2,3.7 4.2,3.7 0,0 1,-0.5 2.9,-0.2 1.7,0.3 2.8,1.3 2.8,1.3 -0.1,-2.4 0.6,-4.4 0.6,-4.4 0,0 -1.2,-2 -4.3,-2.1"
   id="path496" />
		<path
   clip-path="url(#SVGID_6_)"
   fill="#fdc631"
   d="m 310.7,295.9 v -9 l -17,-1.6 c -0.4,-2.5 -1.1,-5 -2,-7.3 l 13.9,-9.9 -4.5,-7.8 -15.5,7.1 c -1.6,-1.9 -3.4,-3.7 -5.4,-5.4 l 7.1,-15.6 -7.8,-4.5 -9.9,14 c -2.2,-0.8 -4.4,-1.4 -6.7,-1.8 l -1.4,-17 -9,-0.1 -1.8,17 c -2.5,0.4 -5,1 -7.3,1.9 l -9.7,-14.1 -7.8,4.4 6.9,15.6 c -2,1.6 -3.8,3.3 -5.4,5.3 l -15.5,-7.3 -4.6,7.7 13.8,10.1 c -0.9,2.4 -1.6,4.8 -2,7.3 l -17,1.5 -0.1,9 17,1.8 c 0.4,2.5 1,5 1.9,7.3 l -14,9.8 4.4,7.8 15.6,-7 c 1.6,2 3.3,3.8 5.3,5.4 l -7.2,15.5 7.8,4.5 10,-13.9 c 2.4,0.9 4.9,1.6 7.3,2 l 1.5,17 h 9 l 1.7,-17 c 2.5,-0.4 5,-1 7.3,-1.9 l 9.9,14 7.8,-4.5 -7.1,-15.6 c 1.9,-1.6 3.7,-3.4 5.4,-5.4 l 15.5,7.2 4.5,-7.8 -13.9,-9.9 c 0.9,-2.4 1.6,-4.9 2,-7.3 z m -37.2,-16.2 -16.5,35 h -11.6 l 16.9,-35 h -23.7 v -8.9 h 34.9 z"
   id="path498" />
		<path
   clip-path="url(#SVGID_6_)"
   fill="#fdc631"
   d="m 744.9,291.7 c -4.1,0 -6.8,2.6 -6.8,7.3 0,4.8 2.7,7.3 6.8,7.3 4.1,0 6.8,-2.6 6.8,-7.3 0,-4.7 -2.7,-7.3 -6.8,-7.3"
   id="path500" />
		<path
   clip-path="url(#SVGID_6_)"
   fill="#fdc631"
   d="m 782,287.9 16.1,-5.9 -2.3,-8.7 -16.8,2.7 c -1,-2.3 -2.3,-4.5 -3.8,-6.6 l 11,-13.1 -6.3,-6.4 -13.2,10.8 c -2.1,-1.5 -4.3,-2.8 -6.5,-3.8 l 2.9,-16.9 -8.7,-2.4 -6,16 c -2.5,-0.3 -5.1,-0.3 -7.6,0 l -5.9,-16.1 -8.7,2.3 2.8,16.9 c -2.1,0.9 -4.1,2.1 -6,3.4 l -13,-11.1 -6.5,6.2 10.7,13.4 c -1.5,2.1 -2.8,4.2 -3.9,6.5 l -16.8,-3.1 -2.5,8.6 15.9,6.2 c -0.3,2.5 -0.3,5.1 -0.1,7.6 l -16.1,5.7 2.2,8.7 16.9,-2.6 c 1,2.3 2.2,4.5 3.7,6.6 l -11.1,13 6.3,6.5 13.3,-10.7 c 2.1,1.5 4.2,2.8 6.5,3.9 l -3.1,16.8 8.7,2.4 6.2,-16 c 2.5,0.3 5.1,0.3 7.6,0.1 l 5.8,16.1 8.7,-2.2 -2.7,-16.9 c 2.3,-1 4.5,-2.2 6.6,-3.7 l 13.1,11 6.4,-6.3 -10.8,-13.3 c 1.5,-2.1 2.8,-4.3 3.9,-6.5 l 16.8,3 2.4,-8.7 -16,-6.1 c 0.2,-2.3 0.2,-4.8 -0.1,-7.3 m -37.3,26.7 c -13.4,0 -19.4,-10.1 -19.4,-22.4 0,-12.5 5.3,-23.3 19.8,-23.3 8,0 15.5,3 15.8,11.7 h -11.6 c -0.1,-1.1 -0.7,-2 -1.6,-2.5 -0.9,-0.6 -2.2,-0.9 -3.5,-0.9 -6.8,0 -6.3,7.5 -6.5,12.3 l 0.1,0.1 c 2.1,-3.9 6.1,-5.4 10.8,-5.4 8.7,0 14.8,5.5 14.8,14.5 0,10.6 -8.8,15.9 -18.7,15.9"
   id="path502" />
		<path
   clip-path="url(#SVGID_6_)"
   fill="#fdc631"
   d="m 416.8,337.2 2.4,-9.5 -17.6,-6.2 c 0.2,-2.8 0.2,-5.6 -0.1,-8.3 l 17.4,-6.8 -2.7,-9.4 -18.3,3.4 c -1.2,-2.5 -2.6,-4.9 -4.3,-7.1 l 11.6,-14.6 -7.1,-6.8 -14.1,12.2 c -2.2,-1.6 -4.7,-2.9 -7.2,-4 l 2.7,-18.4 -9.5,-2.4 -6.2,17.6 c -2.8,-0.2 -5.6,-0.2 -8.3,0.2 l -6.9,-17.3 -9.4,2.7 3.5,18.3 c -2.5,1.2 -4.9,2.6 -7.1,4.3 l -14.6,-11.6 -6.8,7.1 12.2,14.1 c -1.5,2.3 -2.9,4.7 -4,7.3 l -18.5,-2.7 -2.3,9.5 17.6,6.1 c -0.2,2.8 -0.1,5.6 0.2,8.3 l -17.3,6.9 2.8,9.4 18.3,-3.6 c 1.2,2.5 2.6,4.9 4.3,7.1 l -11.5,14.7 7.1,6.7 14,-12.3 c 2.3,1.5 4.7,2.9 7.3,3.9 l -2.6,18.5 9.5,2.3 6,-17.7 c 2.6,0.2 5.1,0.1 7.6,-0.1 l 6.7,17.4 9.4,-2.7 -3.3,-18.4 c 2.5,-1.2 4.9,-2.6 7.1,-4.2 l 14.5,11.7 6.8,-7 -12.1,-14.2 c 1.6,-2.2 2.9,-4.7 4,-7.2 z m -39.3,1.6 h -35.9 v -8.2 c 5.5,-5.5 23.4,-16.3 23.4,-23.9 0,-3.1 -2.1,-4.4 -5.4,-4.4 -2.9,0 -4.7,2.4 -4.8,4.8 h -12.4 c 0.4,-9.9 9,-13 18.2,-13 8,0 16.7,2.9 16.7,11.9 0,10.1 -20.7,24.4 -20.8,24.5 v 0.1 h 20.9 v 8.2 z"
   id="path504" />
		<path
   clip-path="url(#SVGID_6_)"
   fill="#fdc631"
   d="m 699.4,323.5 0.1,-9.8 -18.5,-1.9 c -0.4,-2.7 -1.1,-5.4 -2.1,-8 l 15.3,-10.7 -4.8,-8.5 -17,7.6 c -1.8,-2.2 -3.7,-4.2 -5.8,-5.9 l 7.9,-16.9 -8.5,-5 -11,15.1 c -2.6,-1 -5.2,-1.7 -8,-2.2 l -1.6,-18.6 -9.8,-0.1 -1.9,18.5 c -2.7,0.4 -5.4,1.1 -8,2.1 l -10.7,-15.1 -8.5,4.9 7.7,17 c -2.2,1.8 -4.1,3.7 -5.9,5.8 l -16.9,-7.8 -4.9,8.5 15.2,10.9 c -1,2.6 -1.7,5.3 -2.2,8 l -18.6,1.7 v 9.8 l 18.5,1.8 c 0.4,2.7 1.1,5.4 2.1,8 l -15.2,10.8 4.9,8.5 17,-7.8 c 1.8,2.2 3.7,4.1 5.8,5.8 l -7.7,17 8.5,4.9 10.8,-15.2 c 2.6,1 5.3,1.7 8,2.1 l 1.8,18.6 h 9.8 l 1.7,-18.6 c 2.5,-0.4 4.9,-1.1 7.3,-1.9 l 10.6,15.3 8.6,-4.8 -7.5,-17.1 c 2.2,-1.7 4.2,-3.7 5.9,-5.8 l 16.9,8 5,-8.4 -15.1,-11 c 1,-2.6 1.7,-5.2 2.2,-8 z m -42.2,15.3 h -35.9 v -8.2 c 5.5,-5.5 23.4,-16.3 23.4,-23.9 0,-3.1 -2.1,-4.4 -5.4,-4.4 -2.8,0 -4.7,2.4 -4.8,4.8 h -12.3 c 0.4,-9.9 9,-13 18.2,-13 8,0 16.7,2.9 16.7,11.9 0,10.1 -20.7,24.4 -20.8,24.5 v 0.1 h 20.9 z"
   id="path506" />
		<path
   clip-path="url(#SVGID_6_)"
   fill="#ffffff"
   d="m 487.8,143.7 c 0.9,4.4 -1.4,6.9 -4.7,7.9 -3.9,1.1 -7.9,1.9 -11.9,2.8 -1.6,0.3 -3.2,0.6 -4.8,0.7 -2.8,0.1 -5.1,-1.2 -5.9,-3.9 -1.1,-3.8 -1.9,-7.8 -2.5,-11.7 -0.4,-3 1.2,-5.2 4,-6.1 3.6,-1.1 7.3,-1.9 11,-2.8 2.1,-0.5 4.3,-0.8 6.5,-0.9 2.7,-0.1 4.9,1.2 5.7,3.8 1.2,3.8 2,7.7 2.6,10.2 m -5.1,0.9 c -0.6,-2.6 -1.1,-5.3 -1.8,-7.9 -0.6,-2 -1.6,-2.7 -3.6,-2.3 -3.9,0.8 -7.9,1.7 -11.8,2.6 -1.7,0.4 -2.6,1.6 -2.2,3.3 0.5,2.6 1,5.2 1.7,7.7 0.4,1.7 1.7,2.4 3.4,2.1 4,-0.8 8.1,-1.7 12.1,-2.7 1.4,-0.2 2.2,-1.2 2.2,-2.8"
   id="path508" />
		<path
   clip-path="url(#SVGID_6_)"
   fill="#ffffff"
   d="m 418.9,172.6 c 2.9,0.4 6.6,0.9 9.4,1.3 0.2,0 0.4,0.3 0.3,0.5 -1,1.2 -2.1,2.2 -2.7,2.8 -1.1,1.1 -1.5,0.9 -2.3,0.8 -1,-0.2 -3.4,-0.6 -4.7,-0.8 -2.6,-0.3 -3.2,-0.5 -4.7,0.7 -1.6,1.7 -6.3,6.3 -6.3,6.3 1,1.1 2.3,2.5 3.6,3.9 0.8,0.8 0.7,1.4 -0.1,2.1 -3,2.7 -2.2,2.9 -4.9,0 -4.1,-4.3 -8.2,-8.7 -12.3,-13 -0.9,-0.9 -1,-1.5 0,-2.4 4.2,-4 8.4,-8 12.6,-11.9 2.7,-2.5 6.8,-2.3 9.4,0.3 0.4,0.4 0.8,0.7 1.1,1.1 2.8,2.8 3.2,4.6 1.6,8.3 m -19,3.2 5,5 c 2.9,-2.7 6.2,-5.9 9.3,-8.8 1.1,-1.1 1.1,-2.3 0,-3.5 -0.5,-0.6 -1,-1.1 -1.6,-1.6 -0.9,-0.9 -2,-1 -3,-0.2 -3.2,2.9 -6.4,5.9 -9.7,9.1"
   id="path510" />
		<path
   clip-path="url(#SVGID_6_)"
   fill="#ffffff"
   d="m 383,206.9 c 2.8,-4.5 5.5,-9 8.3,-13.4 1.8,-2.9 2.3,-3.2 4.7,-1 0.3,0.3 0.4,0.8 0.2,1.2 -3.1,5.1 -6.5,10.2 -9.6,15.2 2.3,2.3 4.2,2.2 5.9,-0.4 2.5,-3.8 4.8,-7.7 7.1,-11.6 0.8,-1.3 1.5,-1.6 2.8,-0.7 2.4,1.6 2.3,1.5 0.9,3.7 -2.2,3.6 -4.4,7.1 -6.6,10.7 -0.5,0.9 -1.1,1.7 -1.8,2.5 -2.4,2.8 -5.1,3.5 -8.3,1.8 -3,-1.6 -6,-3.4 -8.8,-5.4 -2.8,-2 -3.6,-4.9 -2.1,-8.1 1.3,-2.7 3,-5.3 4.5,-7.9 1.3,-2.2 2.7,-4.3 3.9,-6.5 0.7,-1.1 1.1,-1.4 2,-0.8 0.4,0.2 1.5,0.9 1.9,1.1 1.1,0.7 0.8,1.2 0.2,2.2 -2.4,3.8 -4.8,7.6 -7.1,11.4 -1.6,3 -1.2,4.3 1.9,6"
   id="path512" />
		<path
   clip-path="url(#SVGID_6_)"
   fill="#ffffff"
   d="m 594.3,184.1 c -2.2,2.5 -6,2.8 -8.6,0.7 -2,-1.6 -6.8,-5.9 -10.3,-8.9 -2.2,-1.9 -2.5,-5.3 -0.7,-7.6 1.4,-1.8 5,-6.1 7.6,-9.2 1.6,-1.9 4.5,-2.2 6.5,-0.6 4,3.1 10.1,8 12,10 2.3,2.3 2.3,4.6 0.3,7.1 -1.3,1.6 -4.3,5.6 -6.8,8.5 m 2.3,-10.2 c 0.9,-1.1 0.8,-2.8 -0.3,-3.8 -2.4,-2.1 -6.2,-5.4 -7.9,-6.8 -1.6,-1.3 -2.9,-1.2 -4.4,0.3 -1.7,1.8 -3.4,3.7 -5,5.7 -1.4,1.7 -1.3,3 0.4,4.5 2.3,2.1 5,4.4 7.4,6.4 1.8,1.5 3,1.4 4.7,-0.3 1,-1.1 3.5,-4 5.1,-6"
   id="path514" />
		<path
   clip-path="url(#SVGID_6_)"
   fill="#ffffff"
   d="m 615,208.8 c 1.5,3.1 1.7,2.9 -0.3,4.2 -1.2,0.7 -1.4,0.9 -3.6,-1.6 -0.3,0.2 -2.2,1.4 -3.2,2.1 -0.4,0.2 -0.9,0.1 -1.1,-0.2 l -1.9,-3 c -0.2,-0.3 -0.1,-0.8 0.2,-1 l 3.3,-2.2 c -3,-4.6 -6,-9 -8.9,-13.5 -1.5,-2.2 -1.2,-2.8 0.8,-4.3 2.6,-2 4.5,-0.6 8.3,0.8 4,1.5 7.2,3 11.3,4.4 2.9,1 4.2,2.9 5.3,5.1 0.7,1.3 -0.1,2.4 -1.3,3.2 -2.6,1.7 -5.2,3.4 -7.7,5.1 -0.3,0.2 -0.7,0.6 -1.2,0.9 m 4.9,-9.2 c 0.2,-0.1 0.1,-0.4 0,-0.5 -2.4,-1 -13.3,-5.6 -15.3,-6.4 -0.2,-0.1 -0.3,0.1 -0.2,0.3 1.1,1.7 5.1,7.6 7.3,11 0.2,0.3 0.7,0.4 1.1,0.2 2.3,-1.5 5.9,-3.8 7.1,-4.6"
   id="path516" />
		<path
   clip-path="url(#SVGID_6_)"
   fill="#ffffff"
   d="m 448,154.3 c 2.7,1.2 6.3,2.8 8.9,3.9 0.2,0.1 0.3,0.4 0.1,0.5 -0.9,0.6 -2.5,1.4 -3.1,1.7 -1.5,0.8 -1.9,0.7 -2.8,0.3 -0.9,-0.4 -3.1,-1.4 -4.3,-1.9 -2.4,-1 -3,-1.4 -4.7,-0.6 -2,1.3 -7.7,4.4 -7.7,4.4 0.7,1.3 1.5,3 2.5,4.7 0.6,1 0.3,1.5 -0.7,2 -3.6,1.8 -2.9,2.3 -4.7,-1.2 -2.8,-5.3 -5.6,-10.5 -8.5,-15.8 -0.6,-1.1 -0.6,-1.7 0.6,-2.3 5.1,-2.7 10.2,-5.5 15.3,-8.2 3.2,-1.7 7.2,-0.5 9,2.7 0.3,0.5 0.5,0.9 0.8,1.4 2,3.5 1.8,5.3 -0.7,8.4 m -19.1,-1.9 3.6,6.1 c 3.5,-1.9 7.5,-4.1 11.2,-6.1 1.4,-0.8 1.7,-2 1,-3.4 -0.3,-0.7 -0.7,-1.3 -1.1,-2 -0.7,-1.1 -1.7,-1.5 -2.8,-0.9 -4,2 -7.8,4.1 -11.9,6.3"
   id="path518" />
		<path
   clip-path="url(#SVGID_6_)"
   fill="#ffffff"
   d="m 517.6,143.8 c 1.7,2.4 3.7,5.2 5.4,7.6 0.1,0.2 0,0.5 -0.2,0.5 -2.1,-0.1 -4,-0.3 -4.9,-0.4 -0.8,-0.1 -0.9,-0.5 -1.2,-1 -0.6,-0.9 -1.6,-2.5 -2.4,-3.5 -1.5,-2.1 -1.8,-2.7 -3.7,-2.9 -2.4,0 -8.9,-0.2 -8.9,-0.2 -0.1,1.5 -0.3,3.4 -0.3,5.3 0,1.2 -0.5,1.5 -1.6,1.4 -4,-0.3 -3.6,0.4 -3.4,-3.5 0.3,-6 0.7,-11.9 1,-17.9 0.1,-1.2 0.4,-1.8 1.7,-1.7 5.8,0.4 11.6,0.6 17.3,1 3.6,0.3 6.4,3.4 6.3,7 0,0.5 0,1.1 0,1.6 -0.2,3.9 -1.3,5.3 -5.1,6.7 m -15.3,-11.6 -0.2,7.1 c 4,0.2 8.6,0.5 12.8,0.6 1.6,0.1 2.4,-0.8 2.6,-2.4 0.1,-0.7 0.1,-1.5 0.1,-2.2 0,-1.3 -0.7,-2.2 -1.9,-2.3 -4.4,-0.3 -8.8,-0.5 -13.4,-0.8"
   id="path520" />
		<path
   clip-path="url(#SVGID_6_)"
   fill="#ffffff"
   d="m 566.7,159 c 2.8,1.9 3,1.7 1.9,3.7 -0.6,1.2 -0.8,1.5 -3.9,0.4 -0.2,0.3 -1.1,2.3 -1.7,3.4 -0.2,0.4 -0.7,0.6 -1.1,0.4 l -3.2,-1.6 c -0.4,-0.2 -0.5,-0.6 -0.3,-1 l 1.7,-3.6 c -4.9,-2.4 -9.7,-4.7 -14.5,-7.1 -2.4,-1.2 -2.5,-1.8 -1.5,-4.2 1.2,-3 3.5,-2.8 7.5,-3.5 4.2,-0.8 7.8,-1 11.9,-2 3,-0.7 5.1,0.3 7.2,1.7 1.3,0.8 1.2,2.1 0.5,3.4 -1.4,2.8 -2.7,5.6 -4.1,8.4 0,0.6 -0.2,1.1 -0.4,1.6 m -0.5,-10.4 c 0.1,-0.2 -0.1,-0.4 -0.3,-0.4 -2.5,0.3 -14.3,1.9 -16.4,2.2 -0.2,0 -0.2,0.3 -0.1,0.3 1.9,0.9 8.2,4 11.9,5.8 0.4,0.2 0.8,0 1,-0.3 1.3,-2.5 3.2,-6.3 3.9,-7.6"
   id="path522" />
		<polygon
   clip-path="url(#SVGID_6_)"
   fill="#ffffff"
   points="308.6,408.1 308.5,408.1 305.2,421.3 301,421.3 296.7,404 300.6,404 303.2,417 303.3,417 306.6,404 310.8,404 313.9,417 316.7,404 320.3,404 315.8,421.3 311.7,421.3 "
   id="polygon524" />
		<path
   clip-path="url(#SVGID_6_)"
   fill="#ffffff"
   d="M 330.7,421.3 337,404 h 4.4 l 6,17.3 h -3.7 l -1.2,-3.7 h -6.9 l -1.3,3.7 z m 10.8,-6.6 -2.4,-7.4 v 0 l -2.5,7.4 z"
   id="path526" />
		<polygon
   clip-path="url(#SVGID_6_)"
   fill="#ffffff"
   points="357.4,404 361.4,404 365.9,417.6 366,417.6 370.5,404 374.2,404 367.8,421.3 363.7,421.3 "
   id="polygon528" />
		<polygon
   clip-path="url(#SVGID_6_)"
   fill="#ffffff"
   points="390.7,418.4 398.8,418.4 398.8,421.3 387,421.3 387,404 398.6,404 398.6,406.8 390.7,406.8 390.7,410.9 398.1,410.9 398.1,413.8 390.7,413.8 "
   id="polygon530" />
	</g>
</g>
<g
   id="Layer_3"
   transform="translate(-372.3,-135.4)">
	<g
   id="Logo_3_">
		<defs
   id="defs535">
			<rect
   id="SVGID_7_"
   x="-26.700001"
   y="-96"
   width="1053.4"
   height="814" />
		</defs>
		<clipPath
   id="SVGID_8_">
			<use
   xlink:href="#SVGID_7_"
   overflow="visible"
   id="use537"
   x="0"
   y="0"
   width="100%"
   height="100%" />
		</clipPath>
		<g
   clip-path="url(#SVGID_8_)"
   id="g554">
			<path
   fill="#fdc631"
   d="m 627.4,281 1.2,-14 -22.8,-6.6 c -0.1,-4.4 -0.5,-8.9 -1.3,-13.3 l 21.2,-10.7 -3.7,-13.6 -23.7,1.6 c -0.5,-1.4 -1.1,-2.7 -1.7,-4.1 -1.2,-2.8 -2.6,-5.4 -4,-8 l 16.3,-17.3 -8.2,-11.5 -21.7,9.7 c -3,-3.4 -6.2,-6.5 -9.6,-9.4 l 9.3,-21.9 -11.6,-8 -17.1,16.5 c -3.9,-2.1 -8,-4 -12.2,-5.6 l 1.2,-23.7 -13.7,-3.5 -10.3,21.5 c -4.4,-0.6 -8.9,-1 -13.4,-1 l -7,-22.7 -14,1.4 -2.4,23.6 c -3.3,0.7 -6.7,1.6 -10,2.7 l -13.8,-19.3 -12.9,5.8 5.2,23.2 c -3.9,2.3 -7.6,4.8 -11.1,7.5 l -19.6,-13.4 -10.1,9.8 12.9,20 c -2.8,3.5 -5.5,7.1 -7.8,10.9 l -23,-5.8 -6.1,12.7 19,14.3 c -1.5,4.2 -2.7,8.5 -3.6,12.9 l -23.6,2.4 -1.4,14 22.7,6.9 c 0.1,4.4 0.4,8.9 1.1,13.4 l -21.4,10.4 3.5,13.6 23.7,-1.3 c 0.7,1.8 1.5,3.7 2.3,5.5 1,2.3 2.1,4.5 3.3,6.7 l -16.5,17.1 8,11.6 21.8,-9.4 c 0,0 0,0 0,0 v 0 c 0,0 9.8,3.9 20.3,3.9 10.5,0 11.2,-3 11.2,-5.5 -1.7,0.5 -3.8,0.3 -3.8,0.3 0,0 14.1,-16 15.4,-28.9 1.6,12.3 -5.3,21.5 -8.2,24.8 5.5,0 12.8,-2.5 19.8,-5.2 7,-2.7 13.3,-6.4 20.9,-6.4 10.6,0 16,6.3 24.2,6.3 2,0 3.5,-0.9 3.5,-0.9 -2.3,-3.4 -4.2,-10.6 -5.1,-16.8 -0.9,-6.2 0.7,-13.7 0.7,-13.7 0,0 -1.4,0.8 -3.7,0.8 -2.7,0 -9.5,-1.3 -14.2,-6.1 3.8,-6.9 6.1,-17.5 6.1,-17.5 0,0 4.7,1.4 10.7,1.4 12.5,0 20.6,-3.2 20.6,-3.2 0,0 3.8,11.5 4.7,17.5 1,6 3.5,17.9 4.2,19.1 -3.3,1.5 -7.9,1.5 -7.9,1.5 0,0 0,19.3 -0.6,22.7 -0.6,3.3 -0.3,6.3 -3.8,6.3 -3.5,0 -7.2,-0.6 -9.6,-0.6 -2.4,0 -8.3,1 -9.5,1.5 -1.1,0.6 -2.4,7.1 -2.4,7.1 h 8.1 c 10.4,0 20,7.6 20,7.6 0,0 -18.6,7 -20.3,10.2 -1.8,-4 -18.8,-11.1 -23.2,-10.6 0.6,-6.3 -2.5,-22.5 -14.6,-22.5 -7.8,0 -12.8,7.5 -12.8,7.5 0,0 12.6,4.9 20,13.1 7.4,8.1 11.3,14.2 12,17.8 -11.6,-10.9 -21.7,-13.4 -42.8,-14 -20,-0.5 -22.2,2.1 -27.9,2.1 -2.7,0 -5.2,0.1 -7.2,0.1 l -5.2,11.7 11.5,8.1 17.3,-16.3 c 3.9,2.2 8,4 12.1,5.7 l -1.6,23.7 13.6,3.7 10.6,-21.2 c 4.4,0.7 8.9,1.1 13.3,1.2 l 6.7,22.8 14,-1.2 2.7,-23.6 c 4.3,-0.9 8.7,-2 12.9,-3.4 l 14.1,19.1 12.8,-6 -5.6,-23.1 c 3.9,-2.3 7.5,-4.9 11,-7.7 l 19.8,13.1 9.9,-10 -12.7,-19.9 c 2.8,-3.5 5.3,-7.2 7.7,-11 l 23.1,5.5 5.9,-12.8 -19.2,-14 c 1.4,-4.2 2.5,-8.6 3.4,-12.9 z M 514.6,258.3 c -4.9,-0.2 -8.9,-1.8 -8.9,-1.8 0,0 -7,4.9 -12.4,8.2 -10.7,-0.8 -20.3,5.1 -20.3,5.1 0,0 2.2,-4.1 9.6,-6 7.9,-1.9 9.5,-3.2 14,-6.7 4.4,-3.5 8,-7.8 8,-7.8 0,0 4,2.9 10.7,2.9 16.1,0 23.6,-6 23.6,-6 l 2.8,4.6 c 0,0.1 -9.3,9.3 -27.1,7.5 M 541,231.4 c 0,0 -2.7,-1.1 -6.7,8 l 2.2,-7.8 c 0,0 -10,-5.9 -30.4,-5.9 -31.1,0 -43.2,14.2 -48.2,25.6 -3.8,8.5 -3,23 -2.2,36.7 0.7,13.7 -7.4,35.2 -21.1,39.7 1.9,-3.5 3.2,-15.4 0.6,-25.9 1.3,-0.7 2.5,-1.4 3.7,-2.2 2,-1.4 4.1,-2.9 5.5,-5 l -0.2,-0.1 c -1.6,1.8 -3.8,3 -5.9,4.1 -1.2,0.6 -2.4,1.1 -3.6,1.6 -0.9,-3.2 -2.2,-6.2 -3.9,-8.8 -1.8,-2.7 -3.6,-5.3 -5.1,-8.4 1.9,-0.5 3.8,-1.1 5.6,-1.8 2.3,-0.9 4.6,-2 6.4,-3.7 l -0.2,-0.1 c -1.9,1.4 -4.3,2.2 -6.6,2.8 -2,0.5 -4,0.9 -6.1,1.1 -2.1,-4.7 -3.8,-10.7 -4.6,-19.8 0.3,0 0.7,0.1 1,0.1 2.5,0.2 5,0.2 7.5,0 2.5,-0.2 5,-0.5 7.3,-1.6 l -0.1,-0.2 c -2.3,0.8 -4.8,0.8 -7.2,0.7 -2.4,-0.1 -4.8,-0.5 -7.2,-0.9 -0.5,-0.1 -1,-0.2 -1.5,-0.3 -0.2,-3.3 -0.4,-7.1 -0.4,-11.3 0,-4.3 0.7,-8.9 2,-13.6 1.5,1 2.9,2 4.4,2.9 2.1,1.3 4.3,2.5 6.6,3.5 2.3,1 4.6,1.9 7.2,2 v -0.2 c -2.4,-0.4 -4.6,-1.6 -6.7,-2.8 -2.1,-1.3 -4.1,-2.7 -5.9,-4.2 -1.6,-1.3 -3.2,-2.7 -4.7,-4.1 2.2,-6.7 5.7,-13.5 10.4,-20 1.2,1.6 2.4,3.2 3.7,4.7 1.6,1.9 3.3,3.7 5.1,5.4 1.9,1.6 3.8,3.3 6.2,4.2 l 0.1,-0.2 c -2.1,-1.1 -3.8,-2.9 -5.4,-4.7 -1.6,-1.8 -3,-3.8 -4.3,-5.9 -1.2,-1.9 -2.4,-3.9 -3.5,-6 5,-6.3 11.1,-12.2 18.4,-17.1 0.3,1 0.7,2 1,2.9 0.9,2.3 1.8,4.6 2.9,6.9 1.1,2.3 2.2,4.5 3.6,6.5 1.4,2.1 2.8,4.1 4.9,5.6 l 0.1,-0.2 c -1.8,-1.6 -3,-3.8 -4.1,-6 -1.1,-2.2 -1.9,-4.4 -2.7,-6.7 -0.8,-2.3 -1.4,-4.6 -2,-7 -0.3,-1.3 -0.6,-2.6 -0.9,-4 6.6,-4 14,-7.2 22.3,-9.2 0.1,0.7 0.2,1.5 0.3,2.2 0.3,2.5 0.7,4.9 1.3,7.4 0.5,2.4 1.2,4.8 2,7.2 0.9,2.3 1.8,4.7 3.5,6.5 l 0.1,-0.1 c -1.4,-2 -2,-4.4 -2.6,-6.7 -0.5,-2.4 -0.9,-4.8 -1.1,-7.2 -0.2,-2.4 -0.3,-4.8 -0.3,-7.3 0,-0.9 0,-1.8 0,-2.7 4.2,-0.8 8.7,-1.4 13.3,-1.6 5.2,-0.2 10.1,0 14.8,0.5 -0.2,0.8 -0.4,1.6 -0.6,2.4 -0.6,2.4 -1,4.9 -1.4,7.3 -0.4,2.5 -0.6,5 -0.6,7.4 0,2.5 0.1,5 1,7.4 l 0.2,-0.1 c -0.6,-2.3 -0.4,-4.8 -0.1,-7.2 0.3,-2.4 0.8,-4.8 1.5,-7.1 0.6,-2.3 1.4,-4.6 2.2,-6.9 0.3,-0.9 0.7,-1.9 1.1,-2.8 9,1.3 17,3.7 23.9,6.6 -0.5,0.9 -1,1.8 -1.5,2.7 -1.2,2.2 -2.2,4.5 -3.2,6.7 -1,2.3 -1.8,4.6 -2.5,7 -0.6,2.4 -1.2,4.9 -0.9,7.4 h 0.2 c 0,-2.4 0.9,-4.8 1.7,-7 0.9,-2.2 2,-4.4 3.3,-6.5 1.2,-2.1 2.5,-4.1 3.9,-6.1 0.7,-1 1.3,-1.9 2,-2.8 19,8.9 28.7,21.2 28.7,21.2 z"
   id="path540" />
			<path
   fill="#fdc631"
   d="m 530.3,275.8 c -4.2,-0.2 -8.2,2.3 -8.2,2.3 3.8,1.4 5.6,4.9 5.6,4.9 0,0 1.4,-0.7 3.8,-0.2 2.2,0.4 3.7,1.7 3.7,1.7 -0.1,-3.2 0.8,-5.9 0.8,-5.9 0,0 -1.6,-2.6 -5.7,-2.8"
   id="path542" />
			
			
			
			
			
		</g>
		
		<g
   display="none"
   clip-path="url(#SVGID_8_)"
   id="g604">
			<path
   display="inline"
   fill="#ffffff"
   d="m 388.7,575.3 h -4.9 v -23 h 9.8 c 4,0 8,1.3 8,6 0,3 -1.9,5 -4.8,5.6 v 0.1 c 3.8,0.4 3.8,2.7 4.2,5.9 0.2,1.5 0.4,4.2 1.3,5.5 h -5.5 c -0.4,-2 -0.6,-4.1 -0.9,-6.2 -0.1,-1.3 -0.4,-3 -2.1,-3.1 h -5.2 v 9.2 z m 0,-13.1 h 4.1 c 2.2,0 3.4,-1.1 3.4,-3.2 0,-2 -1.3,-2.9 -3.4,-2.9 h -4.1 z"
   id="path574" />
			<polygon
   display="inline"
   fill="#ffffff"
   points="425,552.3 425,571.5 434.9,571.5 434.9,575.3 420,575.3 420,552.3 "
   id="polygon576" />
			<polygon
   display="inline"
   fill="#ffffff"
   points="455.1,575.3 455.1,567.8 447.4,552.3 453.1,552.3 457.9,562.8 462.8,552.3 467.8,552.3 460.1,567.8 460.1,575.3 "
   id="polygon578" />
			<path
   display="inline"
   fill="#ffffff"
   d="m 513.3,575.3 h -4.9 v -23 h 9.8 c 4,0 8,1.3 8,6 0,3 -1.9,5 -4.8,5.6 v 0.1 c 3.8,0.4 3.8,2.7 4.2,5.9 0.2,1.5 0.4,4.2 1.3,5.5 h -5.5 c -0.4,-2 -0.6,-4.1 -0.9,-6.2 -0.1,-1.3 -0.4,-3 -2.1,-3.1 h -5.2 v 9.2 z m 0,-13.1 h 4.1 c 2.2,0 3.4,-1.1 3.4,-3.2 0,-2 -1.3,-2.9 -3.4,-2.9 h -4.1 z"
   id="path580" />
			<path
   display="inline"
   fill="#ffffff"
   d="m 543.5,563.8 c 0,-6.8 3.4,-12 11.1,-12 7.6,0 11.1,5.2 11.1,12 0,6.8 -3.4,12 -11.1,12 -7.7,0 -11.1,-5.2 -11.1,-12 m 5.3,0 c 0,4 0.9,8.4 5.8,8.4 4.9,0 5.8,-4.5 5.8,-8.4 0,-4 -0.9,-8.4 -5.8,-8.4 -4.9,0 -5.8,4.4 -5.8,8.4"
   id="path582" />
			<path
   display="inline"
   fill="#ffffff"
   d="m 583.8,575.3 v -23 h 8.7 c 4.1,-0.3 8.3,1.5 8.3,6 0,2.5 -1.8,4.3 -4.1,5 v 0.1 c 2.9,0.6 5.1,2.6 5.1,6 0,4.6 -5.7,6.2 -9.3,6 h -8.7 z m 8.8,-13.8 c 2.1,0 3.2,-0.9 3.2,-2.7 0,-1.8 -1.1,-2.7 -3.2,-2.7 h -3.9 v 5.4 z m 0,10 c 2.3,0 3.9,-0.4 3.9,-3.1 0,-2.6 -1.6,-3.1 -3.9,-3.1 h -3.9 v 6.1 h 3.9 z"
   id="path584" />
			<path
   display="inline"
   fill="#ffffff"
   d="m 618.7,563.8 c 0,-6.8 3.4,-12 11.1,-12 7.6,0 11.1,5.2 11.1,12 0,6.8 -3.4,12 -11.1,12 -7.7,0 -11.1,-5.2 -11.1,-12 m 5.2,0 c 0,4 0.9,8.4 5.8,8.4 4.9,0 5.8,-4.5 5.8,-8.4 0,-4 -0.9,-8.4 -5.8,-8.4 -4.9,0 -5.8,4.4 -5.8,8.4"
   id="path586" />
			<polygon
   display="inline"
   fill="#ffffff"
   points="656.7,552.3 675.4,552.3 675.4,556.1 668.5,556.1 668.5,575.3 663.6,575.3 663.6,556.1 656.7,556.1 "
   id="polygon588" />
			<rect
   x="692.5"
   y="552.29999"
   display="inline"
   fill="#ffffff"
   width="4.9000001"
   height="23"
   id="rect590" />
			<path
   display="inline"
   fill="#ffffff"
   d="m 729.4,559.7 c 0,-2.4 -1.4,-4.4 -4.4,-4.4 -3.5,0 -4.4,5.2 -4.4,8.4 0,3.2 0.9,8.4 4.4,8.4 3,0 4.4,-1.9 4.4,-4.4 h 5.3 c -0.2,5.8 -4.4,7.9 -9.7,7.9 -6.7,0 -9.7,-5.3 -9.7,-12 0,-6.7 3,-12 9.7,-12 5.3,0 9.4,2.2 9.7,7.9 h -5.3 z"
   id="path592" />
			<path
   display="inline"
   fill="#ffffff"
   d="m 765,558.8 c -0.2,-2.3 -1.4,-3.5 -3.8,-3.5 -1.8,0 -3.7,1 -3.7,3 0,2.5 2.2,2.8 4.2,3.3 3.5,0.9 8.7,1.9 8.7,6.5 0,5.7 -5,7.7 -9.9,7.7 -5.3,0 -9,-2 -8.8,-7.9 h 5 c -0.2,2.6 1.3,4.3 3.9,4.3 2,0 4.6,-0.6 4.6,-3.1 0,-2.7 -3.3,-2.9 -5.3,-3.4 -3.2,-0.8 -7.6,-2.3 -7.6,-6.4 0,-5.3 4.9,-7.6 9.6,-7.6 4.5,0 7.9,2.4 7.9,7.1 z"
   id="path594" />
			<polygon
   display="inline"
   fill="#ffffff"
   points="245.4,557.8 245.4,557.8 240.9,575.3 235.3,575.3 229.6,552.3 234.8,552.3 238.3,569.6 238.4,569.6 242.8,552.3 248.4,552.3 252.4,569.6 252.5,569.6 256.2,552.3 260.9,552.3 255.1,575.3 249.6,575.3 "
   id="polygon596" />
			<path
   display="inline"
   fill="#ffffff"
   d="m 274.8,575.3 8.3,-23 h 5.9 l 8,23 h -5 l -1.7,-4.9 h -9.1 l -1.7,4.9 z m 14.4,-8.7 -3.2,-9.8 h -0.1 l -3.4,9.8 z"
   id="path598" />
			<polygon
   display="inline"
   fill="#ffffff"
   points="310.3,552.3 315.7,552.3 321.7,570.4 327.8,552.3 332.7,552.3 324.2,575.3 318.8,575.3 "
   id="polygon600" />
			<polygon
   display="inline"
   fill="#ffffff"
   points="354.6,571.5 365.5,571.5 365.5,575.3 349.7,575.3 349.7,552.3 365.1,552.3 365.1,556.1 354.6,556.1 354.6,561.5 364.4,561.5 364.4,565.3 354.6,565.3 "
   id="polygon602" />
		</g>
		
	</g>
</g>
</svg>
